<?xml version="1.0" encoding="UTF-8"?>
<svg version="1.1" xmlns="http://www.w3.org/2000/svg" width="1024" height="1024">
<path d="M0 0 C337.92 0 675.84 0 1024 0 C1024 337.92 1024 675.84 1024 1024 C686.08 1024 348.16 1024 0 1024 C0 686.08 0 348.16 0 0 Z " fill="#F0F0F0" transform="translate(0,0)"/>
<path d="M0 0 C1.80228825 -0.0015904 3.6045759 -0.00405628 5.4068619 -0.00731641 C10.34314408 -0.01370951 15.27934379 -0.00767603 20.21562052 0.00044787 C25.55423644 0.00704724 30.89284346 0.00206967 36.23146057 -0.00143433 C46.72015688 -0.0064813 57.20882165 -0.00081744 67.69751404 0.00841597 C80.04925057 0.01888561 92.40098054 0.01872703 104.75272067 0.01824339 C127.63679105 0.01772664 150.52084821 0.02776672 173.4049127 0.04274584 C193.95725015 0.056151 214.5095774 0.06251993 235.06192017 0.06193542 C237.66576219 0.06188571 240.26960421 0.06183838 242.87344623 0.06179345 C244.8032444 0.06175963 244.8032444 0.06175963 246.7720284 0.06172513 C248.05681633 0.06170452 249.34160427 0.06168391 250.66532516 0.06166267 C251.94810574 0.06164173 253.23088632 0.06162078 254.55253904 0.0615992 C313.55770587 0.06111802 372.56270094 0.11170378 431.56775568 0.22841541 C437.85080192 0.24083608 444.13384876 0.25258411 450.41689759 0.26361421 C470.8888931 0.29973383 491.36072545 0.346818 511.83252537 0.44602007 C513.38644415 0.4535471 514.94036295 0.46106975 516.49428177 0.46858788 C517.25155135 0.47226607 518.00882094 0.47594427 518.78903808 0.47973393 C523.9757523 0.50402641 529.16243367 0.51866489 534.34919357 0.52861977 C541.0671073 0.5416545 547.78460317 0.57476706 554.50237226 0.62286782 C556.8766658 0.63692557 559.25100867 0.64457949 561.6253438 0.64484763 C585.69773502 0.65600503 603.82143927 5.13806821 623.20059204 20.24723816 C623.96113892 20.77833191 624.72168579 21.30942566 625.50527954 21.85661316 C626.06473267 22.31551941 626.62418579 22.77442566 627.20059204 23.24723816 C627.20059204 23.90723816 627.20059204 24.56723816 627.20059204 25.24723816 C627.86059204 25.24723816 628.52059204 25.24723816 629.20059204 25.24723816 C634.93709093 31.47421837 639.69660132 38.516488 643.63809204 45.99723816 C643.95536255 46.56635925 644.27263306 47.13548035 644.59951782 47.72184753 C651.39406457 61.33282363 650.58559233 77.87523779 650.43343675 92.63799596 C650.39304308 96.59392815 650.37137773 100.54976655 650.35460377 104.50584984 C650.3341736 109.10157021 650.31219948 113.69726228 650.28380293 118.29294121 C650.19942021 132.12597278 650.17743399 145.95870803 650.1706543 159.79197693 C650.1700541 160.92981102 650.1694539 162.06764511 650.16883551 163.23995902 C650.16638342 167.99410138 650.16408911 172.74824377 650.1620754 177.50238634 C650.15615194 190.95586069 650.14215476 204.4093246 650.12729395 217.86279165 C650.12506709 219.88464964 650.12287207 221.90650766 650.12068511 223.92836569 C650.09772842 245.10109789 650.07079689 266.27382399 650.04161072 287.44654846 C650.04061515 288.16889721 650.03961959 288.89124595 650.03859385 289.63548406 C650.01601349 305.99308569 649.99256886 322.35068596 649.96824089 338.70828509 C649.95811045 345.52953753 649.94810231 352.35079016 649.93814087 359.17204285 C649.9370383 359.92535481 649.93593574 360.67866678 649.93479976 361.45480639 C649.8989184 386.01833752 649.87303208 410.58186711 649.85220235 435.14541523 C649.83061475 460.54286418 649.79928445 485.94028274 649.75560091 511.33770376 C649.74944077 514.92142347 649.74339024 518.50514336 649.73740578 522.08886337 C649.7362249 522.79384615 649.73504401 523.49882892 649.73382735 524.22517482 C649.71516923 535.53242505 649.7067044 546.83966059 649.7021308 558.14692433 C649.69732542 569.4815918 649.68141254 580.81619218 649.65492638 592.15083374 C649.64092166 598.28136415 649.63173734 604.41180146 649.63558388 610.54234886 C649.63899966 616.15601194 649.62859762 621.76947617 649.60735653 627.38309853 C649.60209979 629.40901735 649.60184195 631.4349569 649.60719641 633.46087547 C649.65590854 653.98572558 646.38949223 671.46313617 632.20059204 687.24723816 C631.43359985 688.11864441 630.66660767 688.99005066 629.87637329 689.88786316 C622.56730681 697.7104216 614.37442512 702.87128781 605.20059204 708.24723816 C604.21059204 708.90723816 603.22059204 709.56723816 602.20059204 710.24723816 C599.25684883 711.41860264 596.2246918 712.30647516 593.20059204 713.24723816 C591.95383759 713.64109173 591.95383759 713.64109173 590.68189618 714.04290194 C584.16149325 715.9763651 578.29065527 716.67524359 571.51016331 716.62196827 C569.9769813 716.62805936 569.9769813 716.62805936 568.41282591 716.6342735 C565.00181639 716.64418688 561.59122158 716.63280969 558.18022156 716.62145996 C555.70439831 716.62420166 553.22857622 716.62825468 550.75275701 716.63350362 C545.37698859 716.64187595 540.00134203 716.64096099 534.62558365 716.63177109 C526.63148651 716.61814282 518.63746096 716.62174608 510.64335857 716.62872969 C496.3640158 716.64064594 482.08471722 716.6355787 467.80537689 716.62345142 C455.30858122 716.61291046 442.81180061 716.60837653 430.31500053 716.60974693 C429.4856901 716.60983096 428.65637966 716.60991499 427.80193861 716.61000157 C424.43538957 716.61035383 421.06884053 716.61073784 417.70229149 716.61116715 C386.12770629 716.61513132 354.5531477 716.60241867 322.97857011 716.58164059 C294.93546459 716.56327314 266.89238457 716.557458 238.84927368 716.56291199 C237.04874585 716.56325842 235.24821802 716.56360452 233.4476902 716.56395028 C232.55753746 716.56412127 231.66738473 716.56429227 230.75025767 716.56446845 C226.26920236 716.56532201 221.78814704 716.56614579 217.30709171 716.56693745 C215.98098303 716.56717307 215.98098303 716.56717307 214.62808427 716.56741345 C191.18607266 716.57140497 167.74406351 716.5659259 144.30205339 716.55742615 C141.77913316 716.55651913 139.25621294 716.55561348 136.73329271 716.55471092 C135.05970025 716.55410981 133.3861078 716.55350119 131.71251535 716.55288502 C120.0522089 716.54866612 108.39190728 716.54808436 96.73160032 716.54999051 C81.70308547 716.55243507 66.67459646 716.54834898 51.64608867 716.53278051 C43.70121726 716.52473954 35.75638887 716.52212186 27.8115149 716.52742286 C21.87645914 716.53075616 15.94144585 716.52361028 10.00639873 716.51239779 C7.60747374 716.50947116 5.2085418 716.50990091 2.8096186 716.51404087 C-24.58697674 716.55702523 -45.39425709 712.20393631 -65.67440796 692.87223816 C-85.81923373 671.72165017 -88.27735741 646.36321036 -88.15585327 618.47843933 C-88.15662042 616.10345956 -88.15869798 613.72847992 -88.16196251 611.35350227 C-88.16650565 605.5453692 -88.1571298 599.73737881 -88.14160381 593.92926745 C-88.12375285 586.9652871 -88.12337027 580.00133198 -88.12333651 573.03733265 C-88.1226648 559.40117611 -88.10457592 545.76508474 -88.07896097 532.1289547 C-88.05659363 520.20120115 -88.0402501 508.27345762 -88.02957153 496.34568787 C-88.02811433 494.74325426 -88.02665556 493.14082066 -88.02519524 491.53838706 C-88.02299901 489.12366527 -88.02080348 486.70894348 -88.01861871 484.29422168 C-87.98403865 446.4454453 -87.91278703 408.59676916 -87.83196104 370.74806714 C-87.80812687 359.56141462 -87.785801 348.37476 -87.76461381 337.18810216 C-87.68597963 295.67349008 -87.59166779 254.15895754 -87.47111076 212.64444489 C-87.4391281 201.62506983 -87.41050024 190.60569113 -87.38422777 179.58630105 C-87.350324 165.3907746 -87.30956132 151.19529384 -87.25701916 136.99982327 C-87.23184298 130.15987564 -87.20954728 123.31995245 -87.19599533 116.47997093 C-87.18321993 110.21773816 -87.16125666 103.95560648 -87.13200903 97.69342959 C-87.12300255 95.4312411 -87.11727405 93.16903661 -87.11519861 90.90683115 C-87.08882209 66.61939897 -84.00202473 48.66444175 -68.79940796 29.24723816 C-68.08011108 28.29075378 -67.36081421 27.33426941 -66.61972046 26.34880066 C-66.01901733 25.65528503 -65.41831421 24.96176941 -64.79940796 24.24723816 C-64.13940796 24.24723816 -63.47940796 24.24723816 -62.79940796 24.24723816 C-62.79940796 23.58723816 -62.79940796 22.92723816 -62.79940796 22.24723816 C-60.98412227 20.60031792 -59.18041109 19.10587091 -57.23690796 17.62223816 C-56.66061646 17.18073425 -56.08432495 16.73923035 -55.49057007 16.28434753 C-38.22157239 3.43257039 -21.18450967 -0.06793736 0 0 Z " fill="#EFC205" transform="translate(232.79940795898438,153.7527618408203)"/>
<path d="M0 0 C19.70101614 14.4534091 28.67421124 41.057461 32.53271484 64.19433594 C33.05020948 68.40891611 33.19807475 72.52440109 33.23828125 76.765625 C33.246353 77.59850037 33.25442474 78.43137573 33.26274109 79.28948975 C33.27651576 81.05104538 33.28726722 82.81262697 33.29516602 84.57421875 C33.30658336 86.33667088 33.3268685 88.09909132 33.35668945 89.86132812 C33.79731059 115.9933618 27.72135366 143.898166 10 164 C9.32324219 164.83015625 8.64648438 165.6603125 7.94921875 166.515625 C-0.00920352 175.95830009 -9.81652283 182.44752509 -22 185 C-36.38152518 185.98401338 -50.30983547 185.71059425 -64 181 C-64.92425781 180.71125 -65.84851563 180.4225 -66.80078125 180.125 C-82.24493722 174.74476526 -93.04622777 162.33704215 -100 148 C-100.41765625 147.23042969 -100.8353125 146.46085938 -101.265625 145.66796875 C-104.56177969 139.21126068 -106.40221215 132.41433925 -108.25 125.4375 C-108.50845703 124.46780273 -108.76691406 123.49810547 -109.03320312 122.49902344 C-114.9359327 99.30523136 -115.15220785 68.86638141 -108 46 C-107.78569336 45.29343262 -107.57138672 44.58686523 -107.35058594 43.85888672 C-102.54935616 28.51521862 -94.26782006 16.3191931 -83 5 C-82.16082031 4.10861328 -82.16082031 4.10861328 -81.3046875 3.19921875 C-60.48175612 -17.02409942 -23.14139847 -13.98271811 0 0 Z " fill="#F5F5F3" transform="translate(473,419)"/>
<path d="M0 0 C1.02472916 0.00406357 1.02472916 0.00406357 2.07015991 0.00820923 C12.11575509 0.06870092 21.28816973 0.55516793 30.6875 4.4375 C32.04875 4.9634375 32.04875 4.9634375 33.4375 5.5 C44.19932583 10.22470402 52.63914935 18.89205641 57.6875 29.4375 C62.47316611 42.8373651 62.33037959 57.36338206 56.6875 70.4375 C54.92307126 73.65214415 52.93869616 76.54729243 50.6875 79.4375 C50.275 80.00082031 49.8625 80.56414062 49.4375 81.14453125 C46.36157972 85.14120398 42.89041978 87.74128731 38.6875 90.4375 C38.0275 90.4375 37.3675 90.4375 36.6875 90.4375 C36.6875 91.0975 36.6875 91.7575 36.6875 92.4375 C37.3475 92.64375 38.0075 92.85 38.6875 93.0625 C49.80666293 98.15878301 58.37679924 108.09267125 62.6875 119.4375 C64.50749138 125.47859419 65.04207387 130.95574948 65 137.25 C64.99436035 138.13365234 64.9887207 139.01730469 64.98291016 139.92773438 C64.86091019 146.4939898 64.20815614 152.31727052 61.6875 158.4375 C61.2853125 159.41847656 60.883125 160.39945313 60.46875 161.41015625 C53.9109197 175.81916671 42.54850591 185.97587746 27.87451172 191.72583008 C17.63591489 195.05754583 7.52119217 195.96263476 -3.1875 195.875 C-4.50161865 195.86670166 -5.8157373 195.85840332 -7.16967773 195.84985352 C-24.82593819 195.54270257 -41.02589666 191.40177388 -54.24609375 178.86328125 C-63.77605805 167.67593185 -67.896802 155.10283389 -67.75 140.5625 C-67.74170166 139.50329346 -67.73340332 138.44408691 -67.72485352 137.3527832 C-67.43706987 124.05840763 -63.42714341 112.93602705 -54.140625 103.1484375 C-42.50702247 92.4375 -42.50702247 92.4375 -37.3125 92.4375 C-37.3125 91.7775 -37.3125 91.1175 -37.3125 90.4375 C-38.04726563 90.334375 -38.78203125 90.23125 -39.5390625 90.125 C-47.63875762 88.11718825 -54.05180659 80.25460946 -58.3125 73.4375 C-63.65755134 62.38997748 -65.3866221 49.78993328 -62.20703125 37.7578125 C-59.40199257 30.48186065 -55.54413842 23.25043158 -50.3125 17.4375 C-49.6525 17.4375 -48.9925 17.4375 -48.3125 17.4375 C-48.3125 16.7775 -48.3125 16.1175 -48.3125 15.4375 C-34.40404792 3.45993932 -17.89457901 -0.13670002 0 0 Z " fill="#F5F5F3" transform="translate(758.3125,408.5625)"/>
<path d="M0 0 C0.76595993 -0.00807175 1.53191986 -0.01614349 2.3210907 -0.02445984 C3.94605231 -0.03831625 5.57104321 -0.04903142 7.19604492 -0.05688477 C9.6787869 -0.07407726 12.16019026 -0.11794404 14.64257812 -0.16210938 C16.22004227 -0.17223783 17.79751776 -0.18075346 19.375 -0.1875 C20.11680008 -0.20500809 20.85860016 -0.22251617 21.62287903 -0.24055481 C24.93946016 -0.22663781 26.92914971 -0.11863049 29.58485031 1.95286179 C31.72240315 4.66405021 31.88200535 5.86478431 31.86773682 9.27496338 C31.87323547 10.29016052 31.87873413 11.30535767 31.88439941 12.35131836 C31.87001831 13.45902588 31.85563721 14.5667334 31.84082031 15.70800781 C31.84140442 16.87902039 31.84198853 18.05003296 31.84259033 19.25653076 C31.83980143 23.13095642 31.8086695 27.00461482 31.77734375 30.87890625 C31.7676636 33.56361462 31.76399321 36.24832215 31.76019287 38.93304443 C31.74776387 45.27958498 31.71494359 51.6258497 31.67479491 57.97226882 C31.6300746 65.19830358 31.60808956 72.42435157 31.58801317 79.65049028 C31.54621067 94.51323644 31.47586033 109.37574063 31.38671875 124.23828125 C32.01763428 124.23304443 32.6485498 124.22780762 33.29858398 124.22241211 C36.14045222 124.20170299 38.98230463 124.18864059 41.82421875 124.17578125 C43.31405273 124.16321289 43.31405273 124.16321289 44.83398438 124.15039062 C46.2503418 124.14555664 46.2503418 124.14555664 47.6953125 124.140625 C48.56986084 124.13538818 49.44440918 124.13015137 50.34545898 124.12475586 C52.38671875 124.23828125 52.38671875 124.23828125 53.38671875 125.23828125 C53.4746285 127.52979542 53.49365913 129.82400649 53.484375 132.1171875 C53.48225258 133.14718117 53.48225258 133.14718117 53.48008728 134.19798279 C53.47447354 136.39895926 53.46191882 138.59983534 53.44921875 140.80078125 C53.44420551 142.28971208 53.4396423 143.77864449 53.43554688 145.26757812 C53.42449968 148.924512 53.40722588 152.58138683 53.38671875 156.23828125 C50.98612058 157.43858033 49.49311226 157.35287868 46.81640625 157.3359375 C45.92050781 157.33271484 45.02460937 157.32949219 44.1015625 157.32617188 C43.16441406 157.31779297 42.22726562 157.30941406 41.26171875 157.30078125 C40.31683594 157.29626953 39.37195313 157.29175781 38.3984375 157.28710938 C36.06113488 157.27530482 33.72395814 157.25883884 31.38671875 157.23828125 C31.39719238 158.13659668 31.40766602 159.03491211 31.41845703 159.96044922 C31.45251345 163.28892572 31.47760493 166.61721747 31.49658203 169.94580078 C31.50664838 171.38723672 31.52030255 172.8286522 31.53759766 174.27001953 C31.56181887 176.34022059 31.57319516 178.41015201 31.58203125 180.48046875 C31.59250488 181.72683105 31.60297852 182.97319336 31.61376953 184.25732422 C31.38671875 187.23828125 31.38671875 187.23828125 29.38671875 189.23828125 C25.12929737 189.63691621 20.85724301 189.56730666 16.58325195 189.55395508 C14.46057669 189.55079814 12.33929939 189.57423886 10.21679688 189.59960938 C8.86849134 189.60188271 7.52018206 189.60258571 6.171875 189.6015625 C4.943479 189.60454346 3.71508301 189.60752441 2.44946289 189.6105957 C-0.61328125 189.23828125 -0.61328125 189.23828125 -2.28639221 188.12980652 C-4.26682125 185.30663785 -3.95099393 183.01701595 -3.90625 179.6015625 C-3.89658203 178.30283203 -3.88691406 177.00410156 -3.87695312 175.66601562 C-3.8518871 174.29426486 -3.82649226 172.92252007 -3.80078125 171.55078125 C-3.78573145 170.16733201 -3.77204355 168.78386724 -3.75976562 167.40039062 C-3.72435348 164.01262918 -3.67496179 160.62564986 -3.61328125 157.23828125 C-4.6737265 157.24272247 -5.73417175 157.2471637 -6.82675171 157.2517395 C-16.80366164 157.29222237 -26.78055498 157.32223518 -36.75752831 157.34190559 C-41.88721506 157.35235818 -47.01683569 157.36654418 -52.14648438 157.38916016 C-57.09368162 157.41083608 -62.04081513 157.42283876 -66.98805618 157.42803574 C-68.87877023 157.43174096 -70.76948066 157.43897598 -72.66016769 157.44974136 C-75.30135482 157.46418658 -77.94227605 157.46626213 -80.58349609 157.46533203 C-81.37111832 157.47252258 -82.15874054 157.47971313 -82.9702301 157.48712158 C-88.38517693 157.46638557 -88.38517693 157.46638557 -90.61328125 155.23828125 C-91.06109906 151.09016807 -91.02752454 146.93476811 -91.03881836 142.7644043 C-91.05060291 140.70691797 -91.09965633 138.65254557 -91.15039062 136.59570312 C-91.15748047 135.28021484 -91.16457031 133.96472656 -91.171875 132.609375 C-91.19205688 130.81391235 -91.19205688 130.81391235 -91.21264648 128.98217773 C-89.91958741 120.90516716 -84.34465302 114.13748544 -79.80078125 107.5 C-79.24300995 106.6779306 -78.68523865 105.85586121 -78.11056519 105.00888062 C-76.90849983 103.23734954 -75.70491183 101.46685086 -74.49993896 99.69729614 C-71.23930157 94.90739438 -67.99186886 90.10857502 -64.74609375 85.30859375 C-64.07466339 84.31571854 -63.40323303 83.32284332 -62.7114563 82.29988098 C-55.54941637 71.69111804 -48.51352833 61.00040974 -41.48828125 50.30078125 C-33.18848866 37.66582666 -24.85906369 25.05504311 -16.36328125 12.55078125 C-15.96187927 11.9594339 -15.56047729 11.36808655 -15.14691162 10.75881958 C-7.89018688 0.07793341 -7.89018688 0.07793341 0 0 Z " fill="#F5F5F3" transform="translate(613.61328125,411.76171875)"/>
<path d="M0 0 C1.70385864 -0.00809692 1.70385864 -0.00809692 3.44213867 -0.01635742 C20.22731988 0.12411968 34.59841499 4.41198829 47.078125 16.01171875 C58.96997846 28.34305375 59.71569363 42.8478134 59.52734375 58.97265625 C58.73151383 85.80519057 39.68938937 108.53192652 21.15429688 126.40722656 C19.42036193 128.14205071 17.84087997 129.92214613 16.26171875 131.796875 C11.26631595 137.55084635 5.79454961 142.83850869 0.375 148.1875 C-1.70860255 150.24451953 -3.78886023 152.30483984 -5.8671875 154.3671875 C-6.78097168 155.26937012 -7.69475586 156.17155273 -8.63623047 157.10107422 C-10.77949166 159.12587261 -10.77949166 159.12587261 -11.75 161.3125 C-10.32513023 161.30916908 -10.32513023 161.30916908 -8.87147522 161.30577087 C0.06091096 161.28553873 8.99329252 161.27052751 17.92569637 161.26068783 C22.5184264 161.25545918 27.111138 161.24836188 31.70385742 161.23706055 C36.13233688 161.226231 40.56079856 161.22022302 44.98929024 161.21762276 C46.68265628 161.21576863 48.37602129 161.21214825 50.06937981 161.20676994 C52.43291232 161.1995586 54.79637045 161.1985091 57.15991211 161.19897461 C57.86697296 161.19537933 58.57403381 161.19178406 59.30252075 161.18807983 C64.13594784 161.19844784 64.13594784 161.19844784 65.25 162.3125 C65.53188316 166.95204054 65.4818207 171.6029171 65.5 176.25 C65.520625 177.56419922 65.54125 178.87839844 65.5625 180.23242188 C65.57023437 182.1109082 65.57023437 182.1109082 65.578125 184.02734375 C65.5874707 185.18355225 65.59681641 186.33976074 65.60644531 187.53100586 C65.43000488 188.90784546 65.43000488 188.90784546 65.25 190.3125 C61.97988432 192.49257712 61.05643625 192.56327561 57.27110291 192.56646729 C55.7294622 192.57492676 55.7294622 192.57492676 54.15667725 192.58355713 C53.02981506 192.57950867 51.90295288 192.57546021 50.74194336 192.57128906 C48.96120171 192.57654602 48.96120171 192.57654602 47.14448547 192.58190918 C43.88837944 192.58920969 40.63243568 192.5874898 37.37633204 192.58115101 C33.97130791 192.5760915 30.5662947 192.58078222 27.16127014 192.58392334 C21.44400075 192.58756263 15.72678303 192.58276434 10.00952148 192.57324219 C3.39466305 192.56235248 -3.22007216 192.56588706 -9.83492762 192.576895 C-15.51056699 192.58596273 -21.18616921 192.58725584 -26.86181349 192.58201766 C-30.25334058 192.57889578 -33.64480969 192.57849464 -37.03633308 192.58509064 C-40.81475393 192.59014586 -44.592935 192.58245984 -48.37133789 192.57128906 C-49.5002243 192.57533752 -50.62911072 192.57938599 -51.79220581 192.58355713 C-53.32961678 192.57509766 -53.32961678 192.57509766 -54.89808655 192.56646729 C-55.79201646 192.56571323 -56.68594637 192.56495918 -57.60696507 192.56418228 C-59.75 192.3125 -59.75 192.3125 -61.75 190.3125 C-62.33965402 185.92253477 -62.42038108 181.51792489 -62.50512695 177.09399414 C-62.54297981 175.62997441 -62.60402608 174.16634675 -62.68969727 172.7043457 C-63.42797861 159.99463723 -63.42797861 159.99463723 -59.31396484 154.82373047 C-56.69943227 152.00026052 -53.89357667 149.54095254 -50.75 147.3125 C-50.09 147.3125 -49.43 147.3125 -48.75 147.3125 C-48.75 146.6525 -48.75 145.9925 -48.75 145.3125 C-47.67576999 144.16896483 -46.58833879 143.03614506 -45.453125 141.953125 C-44.10571627 140.65516247 -42.78917204 139.32516644 -41.484375 137.984375 C-40.68515625 137.16453125 -39.8859375 136.3446875 -39.0625 135.5 C-37.91201172 134.31470703 -37.91201172 134.31470703 -36.73828125 133.10546875 C-34.75 131.3125 -34.75 131.3125 -32.75 131.3125 C-32.48108444 130.71794006 -32.21216888 130.12338013 -31.93510437 129.51080322 C-30.74616157 127.30537993 -29.56418854 125.89028904 -27.78833008 124.13964844 C-27.19043167 123.54512878 -26.59253326 122.95060913 -25.97651672 122.33807373 C-25.33071152 121.70572815 -24.68490631 121.07338257 -24.01953125 120.421875 C-23.35088547 119.75843079 -22.68223969 119.09498657 -21.99333191 118.41143799 C-19.85441918 116.29031594 -17.7089638 114.17597832 -15.5625 112.0625 C-13.43471241 109.96250293 -11.30846171 107.86100868 -9.18522644 105.75640869 C-7.86572591 104.44897456 -6.54356395 103.14421857 -5.21821594 101.8427124 C-0.84081398 97.51189727 3.24432663 92.98762353 7.25 88.3125 C8.47589844 86.90871094 8.47589844 86.90871094 9.7265625 85.4765625 C17.55117307 76.22929546 23.89324756 66.17326667 23.48828125 53.640625 C22.70910054 46.0276463 20.27200355 41.60722059 14.3828125 36.72265625 C7.59559382 32.23513621 0.08513695 32.4800167 -7.75 33.3125 C-11.11191731 34.58235464 -13.80570043 36.28995188 -16.75 38.3125 C-17.74 38.6425 -18.73 38.9725 -19.75 39.3125 C-20.46980664 40.61791205 -21.12357832 41.95979231 -21.75 43.3125 C-23.11955911 45.42709927 -24.54128391 47.50838959 -26 49.5625 C-26.74765625 50.64015625 -27.4953125 51.7178125 -28.265625 52.828125 C-30.75 55.3125 -30.75 55.3125 -33.58984375 55.875 C-37.41747093 55.19369183 -40.62334486 53.79991414 -44.0625 52.0625 C-45.38251678 51.41996505 -46.70282878 50.7780362 -48.0234375 50.13671875 C-48.65862305 49.82395996 -49.29380859 49.51120117 -49.94824219 49.18896484 C-53.5025497 47.45997244 -57.13092456 45.89981379 -60.75 44.3125 C-60.52135727 32.88036357 -53.81197766 22.45324854 -46.08203125 14.43359375 C-32.58825835 2.16036312 -17.56813549 0.05139328 0 0 Z " fill="#F5F5F4" transform="translate(272.75,408.6875)"/>
<path d="M0 0 C12.09937751 9.28495709 15.70746695 25.97417561 17.78369141 40.28979492 C18.45422191 46.38150129 18.51110975 52.44296977 18.484375 58.56640625 C18.48018555 59.8824585 18.47599609 61.19851074 18.47167969 62.55444336 C18.35861884 72.3119553 17.59707557 81.35500146 15.171875 90.81640625 C14.88183594 91.97785156 14.59179688 93.13929688 14.29296875 94.3359375 C11.25510877 105.25443845 6.91288581 115.37870546 -2.828125 121.81640625 C-9.87367581 125.48107979 -19.99396232 124.80991003 -27.66015625 123.234375 C-34.79453396 120.49807252 -39.73998427 114.69279515 -43.296875 108.08984375 C-44.64522087 105.03962229 -45.73930107 101.9685741 -46.828125 98.81640625 C-47.18358398 97.80513672 -47.53904297 96.79386719 -47.90527344 95.75195312 C-51.25490305 84.9076461 -51.4404927 74.40309294 -51.34960938 63.11083984 C-51.32820573 59.95331616 -51.34948522 56.79807901 -51.375 53.640625 C-51.39989338 35.29509922 -49.77807464 16.61370444 -36.7265625 2.5078125 C-26.90256234 -6.24484608 -10.90630043 -7.06113041 0 0 Z " fill="#F0C206" transform="translate(450.828125,446.18359375)"/>
<path d="M0 0 C4.0365935 3.07504646 6.11145822 7.27164457 8.1875 11.8125 C8.55617188 12.61171875 8.92484375 13.4109375 9.3046875 14.234375 C11.6134978 20.97691836 10.86939508 29.13318346 8.27734375 35.71484375 C5.24486536 41.55154947 1.45022642 45.65283866 -4.625 48.3125 C-14.09794124 51.26051076 -26.8804227 51.62697032 -36.12890625 47.71484375 C-42.58282011 44.25578551 -46.51688852 38.69933445 -48.8125 31.8125 C-49.4937134 20.76898276 -49.31426776 12.74775673 -42.0625 4.0625 C-30.03836993 -8.73240764 -14.41468611 -8.96637063 0 0 Z " fill="#EFC206" transform="translate(776.8125,522.1875)"/>
<path d="M0 0 C0.77794922 -0.02900391 1.55589844 -0.05800781 2.35742188 -0.08789062 C9.5863786 -0.16626964 14.57763113 2.06383004 20.125 6.625 C24.73937703 12.29409178 25.95666461 17.25200694 25.71875 24.46875 C24.74362965 31.29459248 21.73345464 36.57224571 16.3125 40.8125 C9.04511854 45.85278069 1.97409809 46.21080985 -6.6875 45.3125 C-14.13888182 43.1475715 -19.35756978 38.66222274 -23.6875 32.3125 C-26.19529042 27.29691915 -26.41439099 21.82334801 -25.6875 16.3125 C-24.60385956 13.39138229 -23.28613133 11.01019037 -21.6875 8.3125 C-21.0275 8.3125 -20.3675 8.3125 -19.6875 8.3125 C-19.6875 7.6525 -19.6875 6.9925 -19.6875 6.3125 C-18.04296875 5.05859375 -18.04296875 5.05859375 -15.875 3.75 C-15.16730469 3.31558594 -14.45960938 2.88117188 -13.73046875 2.43359375 C-9.27231806 -0.01284841 -4.95384046 0.06007082 0 0 Z " fill="#EFC207" transform="translate(757.6875,439.6875)"/>
<path d="M0 0 C0.33 0 0.66 0 1 0 C1.1736705 24.0226382 0.64690202 47.98376258 0 72 C-15.84 72 -31.68 72 -48 72 C-43.45046521 64.85073105 -38.88138841 57.72660598 -34.21875 50.65234375 C-33.60157104 49.71499893 -32.98439209 48.77765411 -32.34851074 47.81190491 C-31.05488786 45.84786186 -29.7608159 43.88411453 -28.46630859 41.9206543 C-26.50319687 38.94235009 -24.54254706 35.96243533 -22.58203125 32.98242188 C-21.31525357 31.05979739 -20.04833133 29.13726813 -18.78125 27.21484375 C-18.20499878 26.33851791 -17.62874756 25.46219208 -17.03503418 24.55931091 C-13.12388405 18.63341257 -9.09205702 12.80212006 -5 7 C-4.50230103 6.28339706 -4.00460205 5.56679413 -3.49182129 4.82847595 C-2.35311913 3.20103036 -1.18061414 1.59730148 0 0 Z " fill="#EFC106" transform="translate(610,464)"/>
<path d="M0 0 C3.125 0.375 3.125 0.375 6 1 C5.67 1.66 5.34 2.32 5 3 C5.99 3.33 6.98 3.66 8 4 C8.33 3.34 8.66 2.68 9 2 C9.33 3.32 9.66 4.64 10 6 C11.65 6 13.3 6 15 6 C15 6.66 15 7.32 15 8 C14.12412011 7.78929776 13.24824022 7.57859552 12.34581852 7.36150837 C-0.1395186 4.66456037 -12.32393369 4.52587463 -25.05883789 4.49487305 C-27.53778013 4.47830981 -30.01671491 4.46059895 -32.49564171 4.44186592 C-38.67376643 4.39908236 -44.85181986 4.3708438 -51.03005071 4.34924017 C-56.25978259 4.33061041 -61.48944953 4.30534912 -66.71913338 4.27628136 C-155.27113338 3.78746889 -243.82676963 3.8129068 -332.3798275 3.81440926 C-334.30587764 3.81444162 -334.30587764 3.81444162 -336.27083788 3.81447463 C-338.19948684 3.81451031 -338.19948684 3.81451031 -340.1670984 3.8145467 C-341.45452744 3.81457047 -342.74195648 3.81459424 -344.06839852 3.81461872 C-346.67285607 3.8146711 -349.27731362 3.81473472 -351.88177116 3.81480955 C-371.78227178 3.81520311 -391.68275678 3.80723228 -411.58325195 3.79418945 C-435.03255303 3.7788244 -458.48184528 3.77023427 -481.93115193 3.77115268 C-494.22895974 3.77148258 -506.52674902 3.7688203 -518.82455254 3.75797462 C-529.1878019 3.74888574 -539.55102408 3.74668503 -549.9142757 3.75348405 C-555.18067716 3.75674329 -560.44702632 3.75682453 -565.71342278 3.7481308 C-570.53508109 3.7402511 -575.35664563 3.74171158 -580.1783017 3.75041493 C-581.9138945 3.75194536 -583.64949438 3.75015113 -585.38507884 3.74455485 C-595.46569865 3.71421212 -605.04367186 4.23875659 -615 6 C-610.1795865 1.1795865 -600.60831208 1.77110454 -594.10933033 1.74183726 C-592.7096227 1.75057585 -592.7096227 1.75057585 -591.28163815 1.75949097 C-590.25652084 1.75778247 -589.23140354 1.75607398 -588.17522207 1.75431371 C-584.75418844 1.7510357 -581.33335372 1.7620113 -577.91233826 1.77294922 C-575.42938986 1.77350951 -572.94644113 1.77318278 -570.46349293 1.77204704 C-565.07243988 1.77157979 -559.68144664 1.77729594 -554.29040909 1.78850555 C-546.27411086 1.80512686 -538.25783439 1.81015232 -530.24152083 1.81275421 C-516.75451719 1.81741769 -503.26753722 1.8311043 -489.78054619 1.84967041 C-471.37034733 1.87489244 -452.96015638 1.88696471 -434.5499431 1.89553714 C-425.9713931 1.89954922 -417.39284344 1.90420414 -408.81429386 1.9090271 C-407.52628205 1.90975014 -407.52628205 1.90975014 -406.21224981 1.91048779 C-385.78562023 1.92210405 -365.35899694 1.94001881 -344.93237305 1.95898438 C-344.0388407 1.95981167 -343.14530835 1.96063896 -342.22469926 1.96149132 C-328.62896595 1.97408712 -315.03323295 1.98701089 -301.4375 2 C-286.92309588 2.01386408 -272.40869165 2.0275978 -257.89428711 2.04101562 C-256.99986648 2.0418448 -256.10544584 2.04267398 -255.18392156 2.04352829 C-234.77413868 2.06241533 -214.36435644 2.07951246 -193.95456791 2.0909729 C-193.09751253 2.09145489 -192.24045715 2.09193687 -191.3574304 2.09243347 C-182.80300632 2.09720328 -174.24858213 2.10165926 -165.69415765 2.10564596 C-147.29931914 2.11428844 -128.90450823 2.12846515 -110.50968459 2.15374166 C-97.10995158 2.1720717 -83.71022786 2.18361218 -70.31048285 2.18797636 C-62.34128167 2.19081449 -54.37213227 2.19936868 -46.40294743 2.21586867 C-40.46756561 2.22755896 -34.5322115 2.22895786 -28.59681774 2.22622323 C-26.18460671 2.22676984 -23.77239371 2.23076564 -21.36019474 2.2384088 C-18.10198341 2.24826021 -14.84400759 2.24600948 -11.58579159 2.24050903 C-10.63158267 2.24633476 -9.67737376 2.25216048 -8.69424942 2.25816274 C-7.40165978 2.25218953 -7.40165978 2.25218953 -6.08295721 2.24609566 C-5.33702331 2.2468551 -4.59108941 2.24761454 -3.82255146 2.24839699 C-1.74968908 2.15311587 -1.74968908 2.15311587 0 0 Z " fill="#FCFBE9" transform="translate(816,151)"/>
<path d="M0 0 C0.33 0 0.66 0 1 0 C1.07409401 3.95092059 1.12857406 7.90157294 1.16479492 11.85302734 C1.18732251 13.85919374 1.2254357 15.86516526 1.26367188 17.87109375 C1.27333984 19.12792969 1.28300781 20.38476562 1.29296875 21.6796875 C1.3086792 22.84226074 1.32438965 24.00483398 1.34057617 25.20263672 C1.22818604 26.1257666 1.1157959 27.04889648 1 28 C-2.27731359 30.18487573 -3.19798436 30.24830836 -6.99235535 30.24050903 C-8.53833153 30.24463303 -8.53833153 30.24463303 -10.11553955 30.24884033 C-11.24554382 30.24164978 -12.3755481 30.23445923 -13.53979492 30.22705078 C-15.32535545 30.22748886 -15.32535545 30.22748886 -17.14698792 30.22793579 C-20.41123736 30.22678043 -23.67531578 30.21674346 -26.93953109 30.20278788 C-30.35081856 30.1902933 -33.76210932 30.18911102 -37.17341614 30.18673706 C-43.63322113 30.18051854 -50.09295851 30.16410272 -56.55273372 30.14403808 C-63.90694647 30.12169063 -71.26116243 30.11068856 -78.61540067 30.10064721 C-93.74363814 30.0797368 -108.87181231 30.04455361 -124 30 C-124.33 29.34 -124.66 28.68 -125 28 C-75.995 27.505 -75.995 27.505 -26 27 C-56.03 26.67 -86.06 26.34 -117 26 C-116.67 25.34 -116.34 24.68 -116 24 C-78.38 24 -40.76 24 -2 24 C-2.495 22.515 -2.495 22.515 -3 21 C-2.83988879 18.29876894 -2.39559392 15.68124769 -2 13 C-1.67 13 -1.34 13 -1 13 C-0.505 6.565 -0.505 6.565 0 0 Z " fill="#F9F4DB" transform="translate(337,571)"/>
<path d="M0 0 C3.125 0.375 3.125 0.375 6 1 C5.67 1.66 5.34 2.32 5 3 C5.99 3.33 6.98 3.66 8 4 C8.33 3.34 8.66 2.68 9 2 C9.33 3.32 9.66 4.64 10 6 C11.65 6 13.3 6 15 6 C15 6.66 15 7.32 15 8 C14.22096313 7.78937424 13.44192627 7.57874847 12.63928223 7.36174011 C-1.75263295 4.05732382 -16.41448975 4.51776665 -31.09430504 4.49388909 C-35.00340009 4.48440721 -38.91238527 4.45819729 -42.82141113 4.43388367 C-50.1980021 4.39048161 -57.57457143 4.3617742 -64.95125055 4.33856028 C-73.36023197 4.31136625 -81.76910142 4.26746452 -90.17800236 4.22227156 C-107.4519436 4.12980265 -124.72590913 4.0579506 -142 4 C-142 3.67 -142 3.34 -142 3 C-141.28032106 2.99668985 -140.56064213 2.99337971 -139.81915474 2.98996925 C-122.32683974 2.90883233 -104.83461666 2.81677073 -87.34242439 2.71247292 C-78.88341209 2.66230062 -70.42440972 2.61585835 -61.96533203 2.578125 C-54.59443171 2.54523629 -47.22360733 2.50542257 -39.85279071 2.45720994 C-35.9481601 2.43191375 -32.04358006 2.41014183 -28.13888931 2.39665604 C-24.46664259 2.3838638 -20.79456905 2.36184057 -17.12241745 2.33261681 C-15.12611973 2.31916771 -13.12976312 2.31561404 -11.13342285 2.31230164 C-9.36232651 2.29555641 -9.36232651 2.29555641 -7.55545044 2.2784729 C-6.00960361 2.27017676 -6.00960361 2.27017676 -4.43252754 2.26171303 C-1.8196309 2.23790365 -1.8196309 2.23790365 0 0 Z " fill="#FAF3C0" transform="translate(816,151)"/>
<path d="M0 0 C0.495 0.99 0.495 0.99 1 2 C0.0625 4.625 0.0625 4.625 -1 7 C-1.66 7 -2.32 7 -3 7 C-3 7.66 -3 8.32 -3 9 C-5.97 8.505 -5.97 8.505 -9 8 C-9 8.66 -9 9.32 -9 10 C-15.6 10 -22.2 10 -29 10 C-29 9.67 -29 9.34 -29 9 C-23.39 9 -17.78 9 -12 9 C-12 8.34 -12 7.68 -12 7 C-18.93 7 -25.86 7 -33 7 C-33 6.34 -33 5.68 -33 5 C-32.42145264 5.02094727 -31.84290527 5.04189453 -31.24682617 5.06347656 C-15.63004642 5.81713658 -15.63004642 5.81713658 -1 1 C-0.67 0.67 -0.34 0.34 0 0 Z " fill="#F8F4DE" transform="translate(778,566)"/>
<path d="M0 0 C0.66 0.33 1.32 0.66 2 1 C-1.00725813 11.12199076 -5.32905046 19.79312737 -12 28 C-12.33 26.68 -12.66 25.36 -13 24 C-12.34 24 -11.68 24 -11 24 C-11.0825 23.113125 -11.165 22.22625 -11.25 21.3125 C-10.94608803 17.28566635 -9.81763407 15.81763407 -7 13 C-6.34 13 -5.68 13 -5 13 C-5.061875 12.071875 -5.12375 11.14375 -5.1875 10.1875 C-5 7 -5 7 -3.625 5.125 C-2 4 -2 4 0 4 C0 2.68 0 1.36 0 0 Z " fill="#ECC113" transform="translate(878,812)"/>
<path d="M0 0 C0.33 0 0.66 0 1 0 C2.20155877 7.57462649 2.18373174 15.09289543 2.1875 22.75 C2.19974609 24.04421875 2.21199219 25.3384375 2.22460938 26.671875 C2.23668007 34.65462618 1.61344009 42.17870061 0 50 C-0.33 50 -0.66 50 -1 50 C-1.33 46.04 -1.66 42.08 -2 38 C-1.67 38 -1.34 38 -1 38 C-0.67 25.46 -0.34 12.92 0 0 Z " fill="#E6C030" transform="translate(467,482)"/>
<path d="M0 0 C0.33 0 0.66 0 1 0 C1 10.23 1 20.46 1 31 C0.67 31 0.34 31 0 31 C-0.66 23.74 -1.32 16.48 -2 9 C-3.32 10.65 -4.64 12.3 -6 14 C-7.31494512 15.35147138 -8.64264858 16.69112542 -10 18 C-10.66 17.67 -11.32 17.34 -12 17 C-10.29791771 14.56214727 -8.59385669 12.12572263 -6.88671875 9.69140625 C-5.74010138 8.05575538 -4.59613792 6.41823411 -3.45703125 4.77734375 C-2.32958215 3.1671745 -1.16836578 1.58073017 0 0 Z " fill="#E8C131" transform="translate(610,464)"/>
<path d="M0 0 C4.92957259 -0.07414321 9.85882081 -0.12859817 14.78881836 -0.16479492 C16.4659592 -0.17988384 18.14306057 -0.20035748 19.82006836 -0.22631836 C22.23040504 -0.26269811 24.64022019 -0.27972486 27.05078125 -0.29296875 C27.80087967 -0.30845261 28.55097809 -0.32393646 29.32380676 -0.33988953 C34.55076615 -0.34158031 34.55076615 -0.34158031 36.99682617 1.51831055 C37.32787354 2.00726807 37.6589209 2.49622559 38 3 C36.68 3.99 35.36 4.98 34 6 C34 5.34 34 4.68 34 4 C23.11 4 12.22 4 1 4 C1 3.67 1 3.34 1 3 C11.89 3 22.78 3 34 3 C34 2.34 34 1.68 34 1 C22.78 1 11.56 1 0 1 C0 0.67 0 0.34 0 0 Z " fill="#FAF3D2" transform="translate(606,412)"/>
<path d="M0 0 C0.33 0 0.66 0 1 0 C1 10.23 1 20.46 1 31 C0.67 31 0.34 31 0 31 C-0.33 22.09 -0.66 13.18 -1 4 C-6.94 4 -12.88 4 -19 4 C-19.33 3.34 -19.66 2.68 -20 2 C-13.4 2 -6.8 2 0 2 C0 1.34 0 0.68 0 0 Z " fill="#F9F8E4" transform="translate(666,537)"/>
<path d="M0 0 C2 1 2 1 3.125 4 C5.37329959 12.83132077 3.97439303 21.38776606 -0.27734375 29.41015625 C-1.45228296 31.34114329 -2.6135912 33.21462464 -4 35 C-4.33 35 -4.66 35 -5 35 C-5 33.02 -5 31.04 -5 29 C-4.34 28.67 -3.68 28.34 -3 28 C-2.27840576 26.35636866 -1.60648579 24.68949614 -1 23 C-0.34 23 0.32 23 1 23 C0.67 22.01 0.34 21.02 0 20 C0.66 20 1.32 20 2 20 C2 15.05 2 10.1 2 5 C1.34 5 0.68 5 0 5 C0 3.35 0 1.7 0 0 Z " fill="#E7BC1B" transform="translate(293,452)"/>
<path d="M0 0 C1.75570313 0.01353516 1.75570313 0.01353516 3.546875 0.02734375 C4.43890625 0.03894531 5.3309375 0.05054688 6.25 0.0625 C6.58 1.3825 6.91 2.7025 7.25 4.0625 C2.87637803 5.52037399 -1.08642895 5.77545902 -5.375 3.9375 C-8.5349207 2.77331869 -9.74565725 3.7529147 -12.75 5.0625 C-15.0625 4.6875 -15.0625 4.6875 -16.75 4.0625 C-10.73691327 0.91929557 -6.78848426 -0.06788484 0 0 Z " fill="#EDBF10" transform="translate(434.75,441.9375)"/>
<path d="M0 0 C1.32 0 2.64 0 4 0 C4 0.66 4 1.32 4 2 C5.01320313 1.98839844 6.02640625 1.97679687 7.0703125 1.96484375 C8.42187314 1.95545791 9.7734358 1.94635857 11.125 1.9375 C11.79015625 1.92912109 12.4553125 1.92074219 13.140625 1.91210938 C17.20681354 1.89217708 21.0120092 2.21109839 25 3 C25 3.99 25 4.98 25 6 C23.906875 5.67 22.81375 5.34 21.6875 5 C11.95196738 2.63467693 4.10225742 4.05627532 -5 8 C-5 7.34 -5 6.68 -5 6 C-5.66 6 -6.32 6 -7 6 C-7 5.34 -7 4.68 -7 4 C-3.88228073 2.39660152 -2.60988311 1.81025859 0.8125 2.875 C1.534375 3.24625 2.25625 3.6175 3 4 C3 3.34 3 2.68 3 2 C2.01 2 1.02 2 0 2 C0 1.34 0 0.68 0 0 Z " fill="#FAF7E4" transform="translate(746,513)"/>
<path d="M0 0 C0.66 0 1.32 0 2 0 C2.33 0.66 2.66 1.32 3 2 C5.52733235 2.65555119 5.52733235 2.65555119 8 3 C8.33 3.99 8.66 4.98 9 6 C11.31 6 13.62 6 16 6 C16.33 6.99 16.66 7.98 17 9 C28.52873105 8.30998457 28.52873105 8.30998457 40 7 C32.49680906 12.00212729 20.59728089 10.98861065 11.9921875 9.46875 C7.66953235 8.12066772 4.23883095 6.23883095 1 3 C0.67 2.01 0.34 1.02 0 0 Z " fill="#E6B914" transform="translate(733,562)"/>
<path d="M0 0 C0.33 0 0.66 0 1 0 C1.01981934 0.78947021 1.03963867 1.57894043 1.06005859 2.39233398 C1.44540201 17.01515876 1.84121664 31.51728834 4 46 C1.525 46.495 1.525 46.495 -1 47 C-0.83701416 46.37456299 -0.67402832 45.74912598 -0.50610352 45.10473633 C0.1905725 40.83091628 0.12264344 36.64695471 0.09765625 32.32421875 C0.0962413 31.3990596 0.09482635 30.47390045 0.09336853 29.52070618 C0.08778715 26.57627073 0.07523805 23.63191233 0.0625 20.6875 C0.05748259 18.68685006 0.05292011 16.68619892 0.04882812 14.68554688 C0.03782381 9.79033506 0.02057198 4.89518058 0 0 Z " fill="#E8C642" transform="translate(360,494)"/>
<path d="M0 0 C0.99 0.66 1.98 1.32 3 2 C2.401875 3.155 1.80375 4.31 1.1875 5.5 C-1.81061372 11.51749065 -4.16037665 17.28301323 -5 24 C-5.33 24 -5.66 24 -6 24 C-6.33 22.35 -6.66 20.7 -7 19 C-7.33 20.65 -7.66 22.3 -8 24 C-8.33 24 -8.66 24 -9 24 C-8.67 20.04 -8.34 16.08 -8 12 C-7.34 12 -6.68 12 -6 12 C-5.67 12.66 -5.34 13.32 -5 14 C-4.01 10.37 -3.02 6.74 -2 3 C-1.34 3 -0.68 3 0 3 C0 2.01 0 1.02 0 0 Z " fill="#F5F2DF" transform="translate(153,194)"/>
<path d="M0 0 C1.5 1.3125 1.5 1.3125 3 3 C3 3.99 3 4.98 3 6 C2.34 6 1.68 6 1 6 C0.04831317 8.85506049 -0.1900946 10.90937282 -0.31640625 13.88671875 C-0.35830078 14.82451172 -0.40019531 15.76230469 -0.44335938 16.72851562 C-0.48267578 17.70498047 -0.52199219 18.68144531 -0.5625 19.6875 C-0.60568359 20.67556641 -0.64886719 21.66363281 -0.69335938 22.68164062 C-0.79941654 25.12095546 -0.90147714 27.56037113 -1 30 C-5.38618482 22.01492223 -3.43257124 10.44245313 -1 2 C-0.67 1.34 -0.34 0.68 0 0 Z " fill="#FAF6D2" transform="translate(698,442)"/>
<path d="M0 0 C0.99 0.33 1.98 0.66 3 1 C2.71382813 1.68449219 2.42765625 2.36898438 2.1328125 3.07421875 C0.89019008 6.28361251 -0.12700034 9.51910114 -1.125 12.8125 C-1.47820312 13.97394531 -1.83140625 15.13539063 -2.1953125 16.33203125 C-2.46085937 17.21246094 -2.72640625 18.09289062 -3 19 C-3.99 17.68 -4.98 16.36 -6 15 C-5.01 15 -4.02 15 -3 15 C-3 13.35 -3 11.7 -3 10 C-3.66 10 -4.32 10 -5 10 C-4.47731534 7.23723823 -3.89130413 4.6739124 -3 2 C-2.01 2 -1.02 2 0 2 C0 1.34 0 0.68 0 0 Z " fill="#F7F5E4" transform="translate(406,454)"/>
<path d="M0 0 C0.99 0.66 1.98 1.32 3 2 C-3.62097034 5.78341162 -10.50904204 5.72462784 -18 5 C-18.99 4.34 -19.98 3.68 -21 3 C-17.04 3.33 -13.08 3.66 -9 4 C-9.66 3.67 -10.32 3.34 -11 3 C-11 2.34 -11 1.68 -11 1 C-7.31233808 -0.18005182 -3.84889483 -0.20993972 0 0 Z " fill="#E9BC0E" transform="translate(769,480)"/>
<path d="M0 0 C3.0289346 0.52018659 5.53326534 1.65885376 8.25 3.0625 C8.95640625 3.42472656 9.6628125 3.78695313 10.390625 4.16015625 C10.92171875 4.43730469 11.4528125 4.71445312 12 5 C12 5.66 12 6.32 12 7 C5.25 11 5.25 11 3 11 C3 10.34 3 9.68 3 9 C2.34 8.67 1.68 8.34 1 8 C1.99 7.01 2.98 6.02 4 5 C2.36587557 3.29159719 1.13093906 2.06546953 -1 1 C-0.67 0.67 -0.34 0.34 0 0 Z " fill="#E9BC13" transform="translate(709,494)"/>
<path d="M0 0 C0.99 0 1.98 0 3 0 C3 0.66 3 1.32 3 2 C4.32 2.33 5.64 2.66 7 3 C-8.62162162 10.52364865 -8.62162162 10.52364865 -17 10 C-14.3851183 8.25674553 -12.9946567 7.58412043 -10.0625 6.875 C-9.39347656 6.70742188 -8.72445312 6.53984375 -8.03515625 6.3671875 C-6 6 -6 6 -2 6 C-2 5.34 -2 4.68 -2 4 C-3.32 3.67 -4.64 3.34 -6 3 C-4.35 2.67 -2.7 2.34 -1 2 C-1 2.66 -1 3.32 -1 4 C-0.34 3.67 0.32 3.34 1 3 C0.67 2.01 0.34 1.02 0 0 Z " fill="#FAF7E2" transform="translate(788,593)"/>
<path d="M0 0 C0.66 0 1.32 0 2 0 C1.33156881 3.81829872 -0.4416721 6.64708103 -2.4375 9.9375 C-4.63029911 13.55859415 -6.54187313 17.021292 -8 21 C-8.33 21 -8.66 21 -9 21 C-9 19.02 -9 17.04 -9 15 C-8.34 15 -7.68 15 -7 15 C-7.185625 14.38125 -7.37125 13.7625 -7.5625 13.125 C-8 11 -8 11 -7 9 C-6.34 9 -5.68 9 -5 9 C-5 8.34 -5 7.68 -5 7 C-4.34 7 -3.68 7 -3 7 C-3 6.34 -3 5.68 -3 5 C-2.34 5 -1.68 5 -1 5 C-0.67 3.35 -0.34 1.7 0 0 Z " fill="#EBBE12" transform="translate(378,433)"/>
<path d="M0 0 C0.33 0 0.66 0 1 0 C1.0543251 3.02107902 1.09382927 6.04116528 1.125 9.0625 C1.14175781 9.91005859 1.15851563 10.75761719 1.17578125 11.63085938 C1.21596135 16.83418201 0.69745815 21.07469821 -1 26 C-1.33 26 -1.66 26 -2 26 C-3.14884998 16.64310135 -2.91613586 8.99553773 0 0 Z " fill="#EAC015" transform="translate(403,470)"/>
<path d="M0 0 C3.47660371 1.06652783 6.7312695 2.41172314 10 4 C7 5 7 5 4 4 C3.34 3.67 2.68 3.34 2 3 C-0.88370333 2.92805131 -3.74239664 2.90708292 -6.625 2.9375 C-7.82769531 2.94426758 -7.82769531 2.94426758 -9.0546875 2.95117188 C-11.03649006 2.96296832 -13.01825433 2.98090395 -15 3 C-10.3516845 -1.07538359 -5.92426367 -0.73955985 0 0 Z " fill="#E9BE25" transform="translate(763,516)"/>
<path d="M0 0 C2.48982535 2.27745789 4.10368997 4.62335238 5.75 7.5625 C6.19859375 8.34753906 6.6471875 9.13257813 7.109375 9.94140625 C7.40328125 10.62074219 7.6971875 11.30007813 8 12 C7.67 12.66 7.34 13.32 7 14 C6.34 12.68 5.68 11.36 5 10 C3.35 10 1.7 10 0 10 C0 9.01 0 8.02 0 7 C-0.66 6.67 -1.32 6.34 -2 6 C-1.34 4.02 -0.68 2.04 0 0 Z " fill="#E9BE15" transform="translate(371,564)"/>
<path d="M0 0 C1.65 0 3.3 0 5 0 C5 0.99 5 1.98 5 3 C5.66 3 6.32 3 7 3 C7 3.99 7 4.98 7 6 C7.66 6 8.32 6 9 6 C9 6.99 9 7.98 9 9 C8.34 9 7.68 9 7 9 C6.67 9.99 6.34 10.98 6 12 C4.02 8.04 2.04 4.08 0 0 Z " fill="#F4F1E4" transform="translate(870,189)"/>
<path d="M0 0 C1 4 1 4 1 6 C0.42765625 6.20367187 -0.1446875 6.40734375 -0.734375 6.6171875 C-3.89460815 8.54601946 -5.26863396 11.02085988 -7.25 14.125 C-7.95640625 15.22070312 -8.6628125 16.31640625 -9.390625 17.4453125 C-9.92171875 18.28835938 -10.4528125 19.13140625 -11 20 C-11.66 19.67 -12.32 19.34 -13 19 C-8.71 12.73 -4.42 6.46 0 0 Z " fill="#E5BB1C" transform="translate(591,492)"/>
<path d="M0 0 C1 3 1 3 -0.3125 6 C-2 9 -2 9 -4 12 C-6.1640625 12.51171875 -6.1640625 12.51171875 -8.625 12.6875 C-9.44226563 12.75324219 -10.25953125 12.81898438 -11.1015625 12.88671875 C-11.72804688 12.92410156 -12.35453125 12.96148438 -13 13 C-12.46375 12.608125 -11.9275 12.21625 -11.375 11.8125 C-4.7190594 6.77725049 -4.7190594 6.77725049 0 0 Z " fill="#F8F7E5" transform="translate(458,556)"/>
<path d="M0 0 C0.71484375 1.671875 0.71484375 1.671875 1 4 C-0.43359375 6.578125 -0.43359375 6.578125 -2.4375 9.25 C-3.42556641 10.58804687 -3.42556641 10.58804687 -4.43359375 11.953125 C-4.95050781 12.62859375 -5.46742188 13.3040625 -6 14 C-6.33 13.34 -6.66 12.68 -7 12 C-7.66 11.67 -8.32 11.34 -9 11 C-8.01 10.34 -7.02 9.68 -6 9 C-6 8.34 -6 7.68 -6 7 C-5.01 7 -4.02 7 -3 7 C-2.814375 6.1028125 -2.814375 6.1028125 -2.625 5.1875 C-2 3 -2 3 0 0 Z " fill="#EBBE0E" transform="translate(554,485)"/>
<path d="M0 0 C3.17755309 3.46642155 4.45964644 7.38898294 5 12 C4.546875 14.25 4.546875 14.25 4 16 C2.68 15.67 1.36 15.34 0 15 C0.08378906 14.36191406 0.16757812 13.72382813 0.25390625 13.06640625 C0.35574219 12.24011719 0.45757812 11.41382813 0.5625 10.5625 C0.66691406 9.73878906 0.77132813 8.91507812 0.87890625 8.06640625 C0.91886719 7.38449219 0.95882813 6.70257813 1 6 C0.67 5.67 0.34 5.34 0 5 C-0.04063832 3.33382885 -0.042721 1.66611905 0 0 Z " fill="#F8F5D9" transform="translate(327,437)"/>
<path d="M0 0 C2 3 2 3 2 5 C1.01 5 0.02 5 -1 5 C-1.0825 5.763125 -1.165 6.52625 -1.25 7.3125 C-2.14615794 10.52373261 -3.21611025 11.29374499 -6 13 C-6.66 12.67 -7.32 12.34 -8 12 C-5.36 8.04 -2.72 4.08 0 0 Z " fill="#F7F5E0" transform="translate(590,435)"/>
<path d="M0 0 C0.33 0.66 0.66 1.32 1 2 C1.66 2.33 2.32 2.66 3 3 C1.3790787 4.17232685 -0.24686833 5.3377077 -1.875 6.5 C-2.77992188 7.1496875 -3.68484375 7.799375 -4.6171875 8.46875 C-7 10 -7 10 -9 10 C-8.6875 7.625 -8.6875 7.625 -8 5 C-4.77208445 2.8480563 -3.71599191 2.79913557 0 3 C0 2.01 0 1.02 0 0 Z " fill="#F4F2E4" transform="translate(185,161)"/>
<path d="M0 0 C2.33528415 0.17298401 3.69177582 0.70225369 5.37890625 2.33203125 C9 6.57211538 9 6.57211538 9 9 C7.02 9 5.04 9 3 9 C2.61781233 7.34385343 2.28604898 5.67542976 2 4 C2.33 3.67 2.66 3.34 3 3 C2.01 2.01 1.02 1.02 0 0 Z " fill="#ECC115" transform="translate(862,183)"/>
<path d="M0 0 C0.66 0.33 1.32 0.66 2 1 C2 2.32 2 3.64 2 5 C1.01 5 0.02 5 -1 5 C-1 5.66 -1 6.32 -1 7 C-3.375 7.625 -3.375 7.625 -6 8 C-6.66 7.34 -7.32 6.68 -8 6 C-5.36 4.02 -2.72 2.04 0 0 Z " fill="#F9F7E7" transform="translate(714,504)"/>
<path d="M0 0 C-1.41807378 4.47238653 -3.11304374 8.71146306 -5 13 C-5.33 13 -5.66 13 -6 13 C-6 10.36 -6 7.72 -6 5 C-5.34 5 -4.68 5 -4 5 C-4.33 3.68 -4.66 2.36 -5 1 C-3 0 -3 0 0 0 Z " fill="#EBBE0F" transform="translate(219,432)"/>
<path d="M0 0 C0 0.99 0 1.98 0 3 C-0.66 3 -1.32 3 -2 3 C-2 4.32 -2 5.64 -2 7 C-8.96428571 9.27678571 -8.96428571 9.27678571 -13 8 C-12.14535156 7.50628906 -11.29070312 7.01257813 -10.41015625 6.50390625 C-9.30542969 5.86324219 -8.20070313 5.22257813 -7.0625 4.5625 C-5.96035156 3.92441406 -4.85820312 3.28632812 -3.72265625 2.62890625 C-1.1716429 1.25289773 -1.1716429 1.25289773 0 0 Z " fill="#E7BB14" transform="translate(474,592)"/>
<path d="M0 0 C0.66 1.32 1.32 2.64 2 4 C1.34 4.66 0.68 5.32 0 6 C-0.6425235 8.06874034 -0.6425235 8.06874034 -1 10 C-0.34 10.33 0.32 10.66 1 11 C1 11.66 1 12.32 1 13 C-0.65 13.66 -2.3 14.32 -4 15 C-3.50341703 9.33895411 -2.45489316 5.12325529 0 0 Z " fill="#F9F6D8" transform="translate(216,438)"/>
<path d="M0 0 C0.66 0 1.32 0 2 0 C1.40501518 3.36166422 0.25635842 5.21159678 -2 7.75 C-2.804375 8.67039063 -2.804375 8.67039063 -3.625 9.609375 C-4.07875 10.06828125 -4.5325 10.5271875 -5 11 C-5.33 11 -5.66 11 -6 11 C-6 9.02 -6 7.04 -6 5 C-5.01 5 -4.02 5 -3 5 C-3 4.34 -3 3.68 -3 3 C-2.34 3 -1.68 3 -1 3 C-0.67 2.01 -0.34 1.02 0 0 Z " fill="#F4F2E3" transform="translate(166,177)"/>
<path d="M0 0 C0.66 0 1.32 0 2 0 C2.226875 0.94875 2.45375 1.8975 2.6875 2.875 C3.67628816 6.19044598 3.67628816 6.19044598 6.5625 7.25 C7.366875 7.4975 8.17125 7.745 9 8 C9.33 8.66 9.66 9.32 10 10 C6.37723685 8.6744419 3.36494652 7.05653045 0.1875 4.875 C-0.60269531 4.33617187 -1.39289063 3.79734375 -2.20703125 3.2421875 C-2.79871094 2.83226562 -3.39039063 2.42234375 -4 2 C-3.34 1.67 -2.68 1.34 -2 1 C-1.34 1.33 -0.68 1.66 0 2 C0 1.34 0 0.68 0 0 Z " fill="#E8C019" transform="translate(178,851)"/>
<path d="M0 0 C2.52586342 2.96514401 3.41086264 5.17060716 4 9 C4.33 9.99 4.66 10.98 5 12 C5.03954234 14.33299825 5.04401732 16.66708189 5 19 C2.93421237 15.90131855 2.25308642 13.65023694 1.375 10.0625 C1.11460937 9.02222656 0.85421875 7.98195313 0.5859375 6.91015625 C0 4 0 4 0 0 Z " fill="#E7BE1A" transform="translate(400,526)"/>
<path d="M0 0 C0.66 0.33 1.32 0.66 2 1 C2 1.66 2 2.32 2 3 C2.825 3.4125 3.65 3.825 4.5 4.25 C5.325 4.8275 6.15 5.405 7 6 C7.3125 9.1875 7.3125 9.1875 7 12 C6.46375 11.2575 5.9275 10.515 5.375 9.75 C2.84735261 6.82325039 0.28172632 5.01378661 -3 3 C-2.01 2.01 -1.02 1.02 0 0 Z " fill="#F7F6E5" transform="translate(776,518)"/>
<path d="M0 0 C1.44349674 0.73839246 2.87959051 1.49126643 4.3125 2.25 C5.11300781 2.66765625 5.91351562 3.0853125 6.73828125 3.515625 C9.13190204 5.08656783 10.43301591 6.6267037 12 9 C10.68 9.33 9.36 9.66 8 10 C7.67 9.34 7.34 8.68 7 8 C7.33 7.34 7.66 6.68 8 6 C7.01 6 6.02 6 5 6 C5 5.34 5 4.68 5 4 C3.35 4 1.7 4 0 4 C0 2.68 0 1.36 0 0 Z " fill="#F8F7E6" transform="translate(796,501)"/>
<path d="M0 0 C-0.33 1.32 -0.66 2.64 -1 4 C-4.63 3.34 -8.26 2.68 -12 2 C-7.89783794 -0.73477471 -4.73617773 -1.57872591 0 0 Z " fill="#FAF7E0" transform="translate(743,411)"/>
<path d="M0 0 C-0.33 1.32 -0.66 2.64 -1 4 C-0.34 4 0.32 4 1 4 C0.67 4.66 0.34 5.32 0 6 C-2.97 4.35 -5.94 2.7 -9 1 C-4.82091936 -1.08954032 -4.19589427 -1.16552619 0 0 Z " fill="#F4F2DE" transform="translate(845,161)"/>
<path d="M0 0 C5.75 -0.125 5.75 -0.125 8 1 C8 1.99 8 2.98 8 4 C5.36 4.33 2.72 4.66 0 5 C0.33 4.01 0.66 3.02 1 2 C0.67 1.34 0.34 0.68 0 0 Z " fill="#ECC016" transform="translate(816,864)"/>
<path d="M0 0 C0 3 0 3 -1 6 C-2.62890625 7.38671875 -2.62890625 7.38671875 -4.5625 8.6875 C-5.52349609 9.34298828 -5.52349609 9.34298828 -6.50390625 10.01171875 C-6.99761719 10.33785156 -7.49132812 10.66398438 -8 11 C-8.66 10.67 -9.32 10.34 -10 10 C-6.7 6.7 -3.4 3.4 0 0 Z " fill="#F8F3D7" transform="translate(254,524)"/>
<path d="M0 0 C0.33 1.32 0.66 2.64 1 4 C0.34 4 -0.32 4 -1 4 C-0.7215625 5.175625 -0.7215625 5.175625 -0.4375 6.375 C0 9 0 9 -1 11 C-2.65 10.67 -4.3 10.34 -6 10 C-4.02 6.7 -2.04 3.4 0 0 Z " fill="#F8F5E2" transform="translate(568,468)"/>
<path d="M0 0 C0.66 0 1.32 0 2 0 C1.45144652 4.571279 0.58255197 8.67435795 -1 13 C-1.33 11.68 -1.66 10.36 -2 9 C-2.66 9 -3.32 9 -4 9 C-4 8.34 -4 7.68 -4 7 C-3.01 6.34 -2.02 5.68 -1 5 C-0.27034634 2.43717258 -0.27034634 2.43717258 0 0 Z " fill="#F9F8E2" transform="translate(501,539)"/>
<path d="M0 0 C2.56616632 3.84924948 2.55097676 6.4349304 3 11 C2.01 11.495 2.01 11.495 1 12 C0.67 11.34 0.34 10.68 0 10 C-0.66 10 -1.32 10 -2 10 C-1.34 6.7 -0.68 3.4 0 0 Z " fill="#F8F2D3" transform="translate(501,467)"/>
<path d="M0 0 C-0.47503959 4.98791571 -1.9701136 8.0232741 -5 12 C-5.33 12 -5.66 12 -6 12 C-6 10.35 -6 8.7 -6 7 C-4.68 6.34 -3.36 5.68 -2 5 C-2 4.01 -2 3.02 -2 2 C-2.66 1.67 -3.32 1.34 -4 1 C-2 0 -2 0 0 0 Z " fill="#EBBE0F" transform="translate(601,416)"/>
<path d="M0 0 C0.66 0.33 1.32 0.66 2 1 C2 5.62 2 10.24 2 15 C-1.18630458 11.81369542 -0.9782206 8.65338188 -1.125 4.25 C-1 1 -1 1 0 0 Z " fill="#F9F6DA" transform="translate(692,553)"/>
<path d="M0 0 C2.31 0.33 4.62 0.66 7 1 C5.35 2.98 3.7 4.96 2 7 C1.67 6.34 1.34 5.68 1 5 C0.34 4.67 -0.32 4.34 -1 4 C-0.67 2.68 -0.34 1.36 0 0 Z " fill="#EBBF0F" transform="translate(258,512)"/>
<path d="M0 0 C0.66 0.66 1.32 1.32 2 2 C2.66 1.67 3.32 1.34 4 1 C2.88809524 4.33571429 2.53679327 4.58417079 -0.375 6.1875 C-0.98085938 6.53167969 -1.58671875 6.87585938 -2.2109375 7.23046875 C-4 8 -4 8 -7 8 C-4.69 5.36 -2.38 2.72 0 0 Z " fill="#F9F5DC" transform="translate(284,492)"/>
<path d="M0 0 C0.66 0 1.32 0 2 0 C2 0.99 2 1.98 2 3 C2.66 3 3.32 3 4 3 C3.34 4.98 2.68 6.96 2 9 C-2 4.25 -2 4.25 -2 2 C-1.34 2 -0.68 2 0 2 C0 1.34 0 0.68 0 0 Z " fill="#EABF13" transform="translate(491,435)"/>
<path d="M0 0 C0.66 0.33 1.32 0.66 2 1 C1.34 1.66 0.68 2.32 0 3 C-0.99 3 -1.98 3 -3 3 C-3.33 3.99 -3.66 4.98 -4 6 C-5.65 6.33 -7.3 6.66 -9 7 C-9.66 6.01 -10.32 5.02 -11 4 C-10.28972656 3.79503906 -9.57945312 3.59007812 -8.84765625 3.37890625 C-7.92855469 3.10949219 -7.00945313 2.84007812 -6.0625 2.5625 C-4.68771484 2.16224609 -4.68771484 2.16224609 -3.28515625 1.75390625 C-1.0597507 1.20973949 -1.0597507 1.20973949 0 0 Z " fill="#F1EBCB" transform="translate(830,864)"/>
<path d="M0 0 C0.66 0 1.32 0 2 0 C2 0.99 2 1.98 2 3 C3.98 3 5.96 3 8 3 C7 6 7 6 5 7 C5.33 8.32 5.66 9.64 6 11 C3.52140092 8.7991151 2.38789634 6.93627031 1.3125 3.8125 C1.06113281 3.09707031 0.80976563 2.38164063 0.55078125 1.64453125 C0.36902344 1.10183594 0.18726563 0.55914063 0 0 Z " fill="#E6BE16" transform="translate(151,821)"/>
<path d="M0 0 C-0.80814651 1.33597652 -1.62163181 2.668725 -2.4375 4 C-2.88996094 4.7425 -3.34242188 5.485 -3.80859375 6.25 C-4.20175781 6.8275 -4.59492187 7.405 -5 8 C-5.33 8 -5.66 8 -6 8 C-6 5.36 -6 2.72 -6 0 C-2.25 -1.125 -2.25 -1.125 0 0 Z " fill="#F8F7E3" transform="translate(567,529)"/>
<path d="M0 0 C0 4.1041911 -1.45843064 5.84021107 -4 9 C-6.75 9.875 -6.75 9.875 -9 10 C-8.06409496 8.8944811 -7.12620142 7.79064547 -6.1875 6.6875 C-5.66542969 6.07261719 -5.14335937 5.45773437 -4.60546875 4.82421875 C-3.12827531 3.14575321 -1.59960869 1.56117966 0 0 Z " fill="#FAF8E5" transform="translate(264,514)"/>
<path d="M0 0 C4.29 0 8.58 0 13 0 C9.4482799 1.77586005 7.08232923 2.48627846 3.25 3.125 C2.26515625 3.29257812 1.2803125 3.46015625 0.265625 3.6328125 C-0.48203125 3.75398438 -1.2296875 3.87515625 -2 4 C-1.34 2.68 -0.68 1.36 0 0 Z " fill="#E7BD17" transform="translate(730,409)"/>
<path d="M0 0 C1.4540625 0.0309375 1.4540625 0.0309375 2.9375 0.0625 C-0.6875 4.9375 -0.6875 4.9375 -4.0625 6.0625 C-4.105221 4.39638095 -4.10313832 2.72867115 -4.0625 1.0625 C-3.0625 0.0625 -3.0625 0.0625 0 0 Z " fill="#EBBE10" transform="translate(778.0625,562.9375)"/>
<path d="M0 0 C0.268125 0.639375 0.53625 1.27875 0.8125 1.9375 C1.88667752 4.33131686 1.88667752 4.33131686 5 5 C4.505 5.8353125 4.505 5.8353125 4 6.6875 C2.8690399 9.30284522 2.84337026 11.1806646 3 14 C1.20724134 10.88089144 0.65709282 8.32317572 0.375 4.75 C0.30023438 3.85796875 0.22546875 2.9659375 0.1484375 2.046875 C0.09945313 1.37140625 0.05046875 0.6959375 0 0 Z " fill="#FAF5D7" transform="translate(362,528)"/>
<path d="M0 0 C0.33 0.99 0.66 1.98 1 3 C1.99 2.67 2.98 2.34 4 2 C4 2.99 4 3.98 4 5 C2.02 5.99 2.02 5.99 0 7 C0 6.34 0 5.68 0 5 C-0.66 5 -1.32 5 -2 5 C-2 5.66 -2 6.32 -2 7 C-2.66 6.67 -3.32 6.34 -4 6 C-2.68 4.02 -1.36 2.04 0 0 Z " fill="#F8F7E8" transform="translate(533,521)"/>
<path d="M0 0 C0.66 1.32 1.32 2.64 2 4 C1.01 4.99 0.02 5.98 -1 7 C-2.32 6.34 -3.64 5.68 -5 5 C-3.35 3.35 -1.7 1.7 0 0 Z " fill="#F6F2D6" transform="translate(222,556)"/>
<path d="M0 0 C2.35953094 2.35953094 2.49141413 3.77895617 3 7 C2.01 7 1.02 7 0 7 C0 6.34 0 5.68 0 5 C-0.99 5 -1.98 5 -3 5 C-2.67 4.01 -2.34 3.02 -2 2 C-1.34 2 -0.68 2 0 2 C0 1.34 0 0.68 0 0 Z " fill="#EBC015" transform="translate(692,566)"/>
<path d="M0 0 C2.475 0.495 2.475 0.495 5 1 C5.33 2.65 5.66 4.3 6 6 C5.01 6 4.02 6 3 6 C0 2.66666667 0 2.66666667 0 0 Z " fill="#F8F7E1" transform="translate(379,576)"/>
<path d="M0 0 C1.5 1.3125 1.5 1.3125 3 3 C3 3.99 3 4.98 3 6 C2.34 6 1.68 6 1 6 C1 5.34 1 4.68 1 4 C0.34 4 -0.32 4 -1 4 C-1 4.99 -1 5.98 -1 7 C-1.66 7 -2.32 7 -3 7 C-1.125 1.125 -1.125 1.125 0 0 Z " fill="#E7BF1B" transform="translate(732,530)"/>
<path d="M0 0 C0.66 1.32 1.32 2.64 2 4 C1.67 4.99 1.34 5.98 1 7 C0.01 7.33 -0.98 7.66 -2 8 C-2.33 8.66 -2.66 9.32 -3 10 C-3.66 9.67 -4.32 9.34 -5 9 C-3.35 6.03 -1.7 3.06 0 0 Z " fill="#F6F6E5" transform="translate(292,480)"/>
<path d="M0 0 C0.66 0.33 1.32 0.66 2 1 C2 1.66 2 2.32 2 3 C3.32 2.67 4.64 2.34 6 2 C6.33 3.32 6.66 4.64 7 6 C3.08788267 4.84414715 0.1254959 3.64465038 -3 1 C-2.01 0.67 -1.02 0.34 0 0 Z " fill="#FAF7DA" transform="translate(222,454)"/>
<path d="M0 0 C0.33 1.32 0.66 2.64 1 4 C-2.3 3.34 -5.6 2.68 -9 2 C-5.23312136 0.11656068 -3.97041037 -0.22057835 0 0 Z " fill="#E9C01A" transform="translate(460,409)"/>
<path d="M0 0 C1.11375 0.3403125 1.11375 0.3403125 2.25 0.6875 C1.59 2.0075 0.93 3.3275 0.25 4.6875 C-0.41 4.6875 -1.07 4.6875 -1.75 4.6875 C-1.75 3.6975 -1.75 2.7075 -1.75 1.6875 C-3.4 2.0175 -5.05 2.3475 -6.75 2.6875 C-4.29511132 0.41445492 -3.41240272 -0.38777304 0 0 Z " fill="#EDC115" transform="translate(748.75,518.3125)"/>
<path d="M0 0 C1.65 0 3.3 0 5 0 C5 0.99 5 1.98 5 3 C5.66 3 6.32 3 7 3 C6.67 3.99 6.34 4.98 6 6 C3.97945196 4.35830472 1.97956942 2.69088222 0 1 C0 0.67 0 0.34 0 0 Z " fill="#F5F4E4" transform="translate(704,487)"/>
<path d="M0 0 C0.66 0 1.32 0 2 0 C2 0.66 2 1.32 2 2 C2.66 2.33 3.32 2.66 4 3 C2.68 4.65 1.36 6.3 0 8 C-0.79953138 4.71303767 -1.09658936 3.28976808 0 0 Z " fill="#F9F8E9" transform="translate(593,481)"/>
<path d="M0 0 C0.33 0.66 0.66 1.32 1 2 C1.66 2.33 2.32 2.66 3 3 C2.34 3 1.68 3 1 3 C0.67 4.32 0.34 5.64 0 7 C-0.99 7 -1.98 7 -3 7 C-1.125 1.125 -1.125 1.125 0 0 Z " fill="#F6F5E0" transform="translate(220,431)"/>
<path d="M0 0 C0.66 0.33 1.32 0.66 2 1 C-0.475 4.465 -0.475 4.465 -3 8 C-3.33 6.68 -3.66 5.36 -4 4 C-3.34 4 -2.68 4 -2 4 C-2 3.01 -2 2.02 -2 1 C-1.34 0.67 -0.68 0.34 0 0 Z " fill="#E8BD19" transform="translate(869,832)"/>
<path d="M0 0 C0.82810826 3.31243305 1.09278428 5.65976579 1 9 C-0.32 9 -1.64 9 -3 9 C-2.01 6.03 -1.02 3.06 0 0 Z " fill="#F5F4DD" transform="translate(878,818)"/>
<path d="M0 0 C0.66 1.32 1.32 2.64 2 4 C0.25 4.6875 0.25 4.6875 -2 5 C-4.25 3.5625 -4.25 3.5625 -6 2 C-4.02 1.34 -2.04 0.68 0 0 Z " fill="#F5F3E0" transform="translate(726,595)"/>
<path d="M0 0 C0.99 0 1.98 0 3 0 C1.92598892 2.91517292 1.22189824 4.77810176 -1 7 C-1.625 4.625 -1.625 4.625 -2 2 C-1.34 1.34 -0.68 0.68 0 0 Z " fill="#F8F7E5" transform="translate(490,567)"/>
<path d="M0 0 C1.62433191 2.50076998 2.07333427 3.58982529 1.5390625 6.578125 C1.23742187 7.45984375 0.93578125 8.3415625 0.625 9.25 C0.32851563 10.14203125 0.03203125 11.0340625 -0.2734375 11.953125 C-0.51320313 12.62859375 -0.75296875 13.3040625 -1 14 C-1.33 14 -1.66 14 -2 14 C-1.85923685 12.0412957 -1.7122324 10.08303907 -1.5625 8.125 C-1.48128906 7.03445313 -1.40007813 5.94390625 -1.31640625 4.8203125 C-1 2 -1 2 0 0 Z " fill="#E4BB17" transform="translate(693,523)"/>
<path d="M0 0 C2.31 0.66 4.62 1.32 7 2 C6.67 3.65 6.34 5.3 6 7 C1.125 2.25 1.125 2.25 0 0 Z " fill="#E8BC18" transform="translate(809,510)"/>
<path d="M0 0 C0.33 1.65 0.66 3.3 1 5 C0.01 5.495 0.01 5.495 -1 6 C-3.125 5.0625 -3.125 5.0625 -5 4 C-5 3.34 -5 2.68 -5 2 C-2 0 -2 0 0 0 Z " fill="#E6B91E" transform="translate(800,497)"/>
<path d="M0 0 C0.33 0.66 0.66 1.32 1 2 C1.66 2.33 2.32 2.66 3 3 C2.34 3 1.68 3 1 3 C1 3.66 1 4.32 1 5 C0.01 5.33 -0.98 5.66 -2 6 C-2.66 5.67 -3.32 5.34 -4 5 C-4 4.34 -4 3.68 -4 3 C-2 1.375 -2 1.375 0 0 Z " fill="#EBBF0F" transform="translate(174,173)"/>
<path d="M0 0 C1.485 0.99 1.485 0.99 3 2 C2.67 5.3 2.34 8.6 2 12 C1.67 12 1.34 12 1 12 C0.67 8.04 0.34 4.08 0 0 Z " fill="#E3BA15" transform="translate(504,475)"/>
<path d="M0 0 C0.53625 0.226875 1.0725 0.45375 1.625 0.6875 C-3.79038462 3.76442308 -3.79038462 3.76442308 -6.75 3.375 C-7.554375 3.0346875 -7.554375 3.0346875 -8.375 2.6875 C-2.95961538 -0.38942308 -2.95961538 -0.38942308 0 0 Z " fill="#E4BB1F" transform="translate(426.375,443.3125)"/>
<path d="M0 0 C1.0828125 0.37125 1.0828125 0.37125 2.1875 0.75 C-2.2525 3.71 -2.2525 3.71 -4.8125 4.75 C-5.8025 4.42 -6.7925 4.09 -7.8125 3.75 C-3.50480769 -0.31153846 -3.50480769 -0.31153846 0 0 Z " fill="#E7BD14" transform="translate(244.8125,410.25)"/>
<path d="M0 0 C1.98 0.495 1.98 0.495 4 1 C3.67 1.33 3.34 1.66 3 2 C2.63239269 4.32817964 2.29758419 6.6618385 2 9 C1.67 9 1.34 9 1 9 C1 7.02 1 5.04 1 3 C0.34 2.67 -0.32 2.34 -1 2 C-0.67 1.34 -0.34 0.68 0 0 Z " fill="#F8F7E8" transform="translate(526,531)"/>
<path d="M0 0 C5.875 3.625 5.875 3.625 7 7 C6.34 7 5.68 7 5 7 C4.67 6.34 4.34 5.68 4 5 C1.97536745 4.34786708 1.97536745 4.34786708 0 4 C0 2.68 0 1.36 0 0 Z " fill="#E9BF22" transform="translate(774,521)"/>
<path d="M0 0 C1.5 1.25 1.5 1.25 3 3 C3 4.32 3 5.64 3 7 C2.01 7 1.02 7 0 7 C0 4.69 0 2.38 0 0 Z " fill="#EBC72B" transform="translate(877,205)"/>
</svg>
