<svg width="654" height="654" viewBox="0 0 654 654" fill="none" xmlns="http://www.w3.org/2000/svg">
<rect opacity="0.5" width="654" height="654" fill="white"/>
<path d="M180.933 265.664H220.986V315.684C216.204 317.334 210.724 318.688 204.546 319.746C198.368 320.762 191.893 321.27 185.122 321.27C176.193 321.27 168.364 319.535 161.636 316.064C154.907 312.594 149.66 307.326 145.894 300.259C142.127 293.149 140.244 284.178 140.244 273.345C140.244 263.612 142.106 255.212 145.83 248.145C149.554 241.035 155.034 235.555 162.271 231.704C169.549 227.811 178.457 225.864 188.994 225.864C194.792 225.864 200.293 226.414 205.498 227.515C210.703 228.615 215.231 230.011 219.082 231.704L211.147 251.382C207.804 249.731 204.334 248.504 200.737 247.7C197.14 246.854 193.268 246.431 189.121 246.431C183.577 246.431 179.113 247.679 175.728 250.176C172.384 252.673 169.951 256.016 168.428 260.205C166.904 264.352 166.143 268.944 166.143 273.979C166.143 279.735 166.947 284.601 168.555 288.579C170.205 292.515 172.596 295.519 175.728 297.593C178.901 299.624 182.731 300.64 187.217 300.64C188.698 300.64 190.496 300.534 192.612 300.322C194.771 300.111 196.4 299.857 197.5 299.561V285.024H180.933V265.664ZM296.841 320L292.271 302.607H262.119L257.422 320H229.873L260.151 226.816H293.604L324.263 320H296.841ZM287.065 282.041L283.066 266.807C282.643 265.156 282.03 262.808 281.226 259.761C280.422 256.672 279.618 253.498 278.813 250.239C278.052 246.938 277.459 244.23 277.036 242.114C276.655 244.23 276.105 246.854 275.386 249.985C274.709 253.075 273.989 256.143 273.228 259.189C272.508 262.236 271.873 264.775 271.323 266.807L267.324 282.041H287.065ZM374.79 320L355.811 253.159H355.239C355.409 254.894 355.578 257.243 355.747 260.205C355.959 263.167 356.149 266.362 356.318 269.79C356.488 273.218 356.572 276.519 356.572 279.692V320H334.355V227.197H367.744L387.104 293.086H387.612L406.592 227.197H440.044V320H417.002V279.312C417.002 276.392 417.044 273.26 417.129 269.917C417.256 266.532 417.383 263.358 417.51 260.396C417.679 257.391 417.827 255.021 417.954 253.286H417.383L398.657 320H374.79ZM515.137 320H460.039V227.197H515.137V247.319H485.112V261.919H512.915V282.041H485.112V299.561H515.137V320ZM316.201 377.197L293.35 470H263.706L254.819 429.565C254.65 428.804 254.375 427.513 253.994 425.693C253.656 423.874 253.254 421.8 252.788 419.473C252.365 417.145 251.963 414.86 251.582 412.617C251.243 410.332 250.99 408.407 250.82 406.841C250.651 408.407 250.376 410.332 249.995 412.617C249.614 414.86 249.191 417.145 248.726 419.473C248.302 421.8 247.879 423.874 247.456 425.693C247.075 427.513 246.8 428.804 246.631 429.565L237.681 470H208.037L185.059 377.197H209.243L219.336 423.726C219.59 424.868 219.928 426.497 220.352 428.613C220.817 430.687 221.283 432.972 221.748 435.469C222.256 437.923 222.721 440.293 223.145 442.578C223.568 444.863 223.864 446.768 224.033 448.291C224.372 445.667 224.816 442.684 225.366 439.341C225.959 435.998 226.593 432.612 227.271 429.185C227.99 425.715 228.667 422.498 229.302 419.536C229.937 416.574 230.487 414.162 230.952 412.3L239.141 377.197H262.373L270.308 412.3C270.731 414.119 271.26 416.532 271.895 419.536C272.572 422.498 273.249 425.715 273.926 429.185C274.645 432.655 275.301 436.082 275.894 439.468C276.486 442.811 276.93 445.752 277.227 448.291C277.48 446.175 277.904 443.509 278.496 440.293C279.089 437.035 279.681 433.882 280.273 430.835C280.908 427.746 281.395 425.418 281.733 423.853L292.017 377.197H316.201ZM328.198 470V377.197H353.398V470H328.198ZM461.88 470H428.999L395.103 404.619H394.531C394.743 406.608 394.933 408.999 395.103 411.792C395.272 414.585 395.42 417.441 395.547 420.361C395.674 423.239 395.737 425.841 395.737 428.169V470H373.521V377.197H406.274L440.044 441.689H440.425C440.298 439.658 440.171 437.31 440.044 434.644C439.917 431.935 439.79 429.206 439.663 426.455C439.578 423.704 439.536 421.271 439.536 419.155V377.197H461.88V470Z" fill="#2C3E50"/>
</svg>
