<svg width="654" height="654" viewBox="0 0 654 654" fill="none" xmlns="http://www.w3.org/2000/svg">
<rect opacity="0.5" width="654" height="654" fill="white"/>
<path d="M180.933 265.664H220.986V315.684C216.204 317.334 210.724 318.688 204.546 319.746C198.368 320.762 191.893 321.27 185.122 321.27C176.193 321.27 168.364 319.535 161.636 316.064C154.907 312.594 149.66 307.326 145.894 300.259C142.127 293.149 140.244 284.178 140.244 273.345C140.244 263.612 142.106 255.212 145.83 248.145C149.554 241.035 155.034 235.555 162.271 231.704C169.549 227.811 178.457 225.864 188.994 225.864C194.792 225.864 200.293 226.414 205.498 227.515C210.703 228.615 215.231 230.011 219.082 231.704L211.147 251.382C207.804 249.731 204.334 248.504 200.737 247.7C197.14 246.854 193.268 246.431 189.121 246.431C183.577 246.431 179.113 247.679 175.728 250.176C172.384 252.673 169.951 256.016 168.428 260.205C166.904 264.352 166.143 268.944 166.143 273.979C166.143 279.735 166.947 284.601 168.555 288.579C170.205 292.515 172.596 295.519 175.728 297.593C178.901 299.624 182.731 300.64 187.217 300.64C188.698 300.64 190.496 300.534 192.612 300.322C194.771 300.111 196.4 299.857 197.5 299.561V285.024H180.933V265.664ZM296.841 320L292.271 302.607H262.119L257.422 320H229.873L260.151 226.816H293.604L324.263 320H296.841ZM287.065 282.041L283.066 266.807C282.643 265.156 282.03 262.808 281.226 259.761C280.422 256.672 279.618 253.498 278.813 250.239C278.052 246.938 277.459 244.23 277.036 242.114C276.655 244.23 276.105 246.854 275.386 249.985C274.709 253.075 273.989 256.143 273.228 259.189C272.508 262.236 271.873 264.775 271.323 266.807L267.324 282.041H287.065ZM374.79 320L355.811 253.159H355.239C355.409 254.894 355.578 257.243 355.747 260.205C355.959 263.167 356.149 266.362 356.318 269.79C356.488 273.218 356.572 276.519 356.572 279.692V320H334.355V227.197H367.744L387.104 293.086H387.612L406.592 227.197H440.044V320H417.002V279.312C417.002 276.392 417.044 273.26 417.129 269.917C417.256 266.532 417.383 263.358 417.51 260.396C417.679 257.391 417.827 255.021 417.954 253.286H417.383L398.657 320H374.79ZM515.137 320H460.039V227.197H515.137V247.319H485.112V261.919H512.915V282.041H485.112V299.561H515.137V320ZM247.773 423.472C247.773 430.623 246.906 437.14 245.171 443.022C243.478 448.862 240.812 453.898 237.173 458.13C233.534 462.362 228.857 465.62 223.145 467.905C217.432 470.148 210.597 471.27 202.642 471.27C194.855 471.27 188.105 470.148 182.393 467.905C176.722 465.62 172.046 462.383 168.364 458.193C164.683 453.962 161.953 448.905 160.176 443.022C158.398 437.14 157.51 430.581 157.51 423.345C157.51 413.696 159.097 405.317 162.271 398.208C165.487 391.056 170.438 385.534 177.124 381.641C183.81 377.705 192.358 375.737 202.769 375.737C213.348 375.737 221.938 377.705 228.54 381.641C235.184 385.576 240.05 391.12 243.14 398.271C246.229 405.423 247.773 413.823 247.773 423.472ZM183.916 423.472C183.916 429.058 184.551 433.861 185.82 437.881C187.09 441.901 189.1 444.99 191.851 447.148C194.601 449.307 198.198 450.386 202.642 450.386C207.254 450.386 210.915 449.307 213.623 447.148C216.374 444.99 218.341 441.901 219.526 437.881C220.754 433.861 221.367 429.058 221.367 423.472C221.367 415.093 219.971 408.47 217.178 403.604C214.385 398.737 209.582 396.304 202.769 396.304C198.241 396.304 194.58 397.404 191.787 399.604C189.036 401.805 187.026 404.937 185.757 408.999C184.53 413.062 183.916 417.886 183.916 423.472ZM344.702 377.197L314.297 470H284.78L254.502 377.197H282.686L295.317 424.233C295.783 426.011 296.312 428.296 296.904 431.089C297.539 433.84 298.11 436.59 298.618 439.341C299.168 442.091 299.507 444.334 299.634 446.069C299.803 444.334 300.12 442.113 300.586 439.404C301.051 436.696 301.559 433.988 302.109 431.279C302.702 428.529 303.252 426.265 303.76 424.487L316.646 377.197H344.702ZM409.893 470H354.795V377.197H409.893V397.319H379.868V411.919H407.671V432.041H379.868V449.561H409.893V470ZM456.548 377.197C464.969 377.197 471.973 378.234 477.559 380.308C483.145 382.339 487.334 385.386 490.127 389.448C492.962 393.511 494.38 398.568 494.38 404.619C494.38 408.385 493.745 411.813 492.476 414.902C491.206 417.992 489.386 420.763 487.017 423.218C484.689 425.63 481.896 427.746 478.638 429.565L505.679 470H477.241L457.563 436.23H451.216V470H426.143V377.197H456.548ZM456.167 396.177H451.216V417.378H455.913C459.764 417.378 462.917 416.532 465.371 414.839C467.826 413.146 469.053 410.12 469.053 405.762C469.053 402.757 468.037 400.409 466.006 398.716C463.975 397.023 460.695 396.177 456.167 396.177Z" fill="#2C3E50"/>
</svg>
