<svg width="654" height="654" viewBox="0 0 654 654" fill="none" xmlns="http://www.w3.org/2000/svg">
<rect opacity="0.5" width="654" height="654" fill="white"/>
<path d="M180.433 257.664H220.486V307.684C215.704 309.334 210.224 310.688 204.046 311.746C197.868 312.762 191.393 313.27 184.622 313.27C175.693 313.27 167.864 311.535 161.136 308.064C154.407 304.594 149.16 299.326 145.394 292.259C141.627 285.149 139.744 276.178 139.744 265.345C139.744 255.612 141.606 247.212 145.33 240.145C149.054 233.035 154.534 227.555 161.771 223.704C169.049 219.811 177.957 217.864 188.494 217.864C194.292 217.864 199.793 218.414 204.998 219.515C210.203 220.615 214.731 222.011 218.582 223.704L210.647 243.382C207.304 241.731 203.834 240.504 200.237 239.7C196.64 238.854 192.768 238.431 188.621 238.431C183.077 238.431 178.613 239.679 175.228 242.176C171.884 244.673 169.451 248.016 167.928 252.205C166.404 256.352 165.643 260.944 165.643 265.979C165.643 271.735 166.447 276.601 168.055 280.579C169.705 284.515 172.096 287.519 175.228 289.593C178.401 291.624 182.231 292.64 186.717 292.64C188.198 292.64 189.996 292.534 192.112 292.322C194.271 292.111 195.9 291.857 197 291.561V277.024H180.433V257.664ZM296.341 312L291.771 294.607H261.619L256.922 312H229.373L259.651 218.816H293.104L323.763 312H296.341ZM286.565 274.041L282.566 258.807C282.143 257.156 281.53 254.808 280.726 251.761C279.922 248.672 279.118 245.498 278.313 242.239C277.552 238.938 276.959 236.23 276.536 234.114C276.155 236.23 275.605 238.854 274.886 241.985C274.209 245.075 273.489 248.143 272.728 251.189C272.008 254.236 271.373 256.775 270.823 258.807L266.824 274.041H286.565ZM374.29 312L355.311 245.159H354.739C354.909 246.894 355.078 249.243 355.247 252.205C355.459 255.167 355.649 258.362 355.818 261.79C355.988 265.218 356.072 268.519 356.072 271.692V312H333.855V219.197H367.244L386.604 285.086H387.112L406.092 219.197H439.544V312H416.502V271.312C416.502 268.392 416.544 265.26 416.629 261.917C416.756 258.532 416.883 255.358 417.01 252.396C417.179 249.391 417.327 247.021 417.454 245.286H416.883L398.157 312H374.29ZM514.637 312H459.539V219.197H514.637V239.319H484.612V253.919H512.415V274.041H484.612V291.561H514.637V312ZM315.701 349.197L292.85 442H263.206L254.319 401.565C254.15 400.804 253.875 399.513 253.494 397.693C253.156 395.874 252.754 393.8 252.288 391.473C251.865 389.145 251.463 386.86 251.082 384.617C250.743 382.332 250.49 380.407 250.32 378.841C250.151 380.407 249.876 382.332 249.495 384.617C249.114 386.86 248.691 389.145 248.226 391.473C247.802 393.8 247.379 395.874 246.956 397.693C246.575 399.513 246.3 400.804 246.131 401.565L237.181 442H207.537L184.559 349.197H208.743L218.836 395.726C219.09 396.868 219.428 398.497 219.852 400.613C220.317 402.687 220.783 404.972 221.248 407.469C221.756 409.923 222.221 412.293 222.645 414.578C223.068 416.863 223.364 418.768 223.533 420.291C223.872 417.667 224.316 414.684 224.866 411.341C225.459 407.998 226.093 404.612 226.771 401.185C227.49 397.715 228.167 394.498 228.802 391.536C229.437 388.574 229.987 386.162 230.452 384.3L238.641 349.197H261.873L269.808 384.3C270.231 386.119 270.76 388.532 271.395 391.536C272.072 394.498 272.749 397.715 273.426 401.185C274.145 404.655 274.801 408.082 275.394 411.468C275.986 414.811 276.43 417.752 276.727 420.291C276.98 418.175 277.404 415.509 277.996 412.293C278.589 409.035 279.181 405.882 279.773 402.835C280.408 399.746 280.895 397.418 281.233 395.853L291.517 349.197H315.701ZM327.698 442V349.197H352.898V442H327.698ZM461.38 442H428.499L394.603 376.619H394.031C394.243 378.608 394.433 380.999 394.603 383.792C394.772 386.585 394.92 389.441 395.047 392.361C395.174 395.239 395.237 397.841 395.237 400.169V442H373.021V349.197H405.774L439.544 413.689H439.925C439.798 411.658 439.671 409.31 439.544 406.644C439.417 403.935 439.29 401.206 439.163 398.455C439.078 395.704 439.036 393.271 439.036 391.155V349.197H461.38V442Z" fill="#2C3E50"/>
</svg>
