<svg width="654" height="654" viewBox="0 0 654 654" fill="none" xmlns="http://www.w3.org/2000/svg">
<rect opacity="0.5" width="654" height="654" fill="white"/>
<path d="M180.433 257.664H220.486V307.684C215.704 309.334 210.224 310.688 204.046 311.746C197.868 312.762 191.393 313.27 184.622 313.27C175.693 313.27 167.864 311.535 161.136 308.064C154.407 304.594 149.16 299.326 145.394 292.259C141.627 285.149 139.744 276.178 139.744 265.345C139.744 255.612 141.606 247.212 145.33 240.145C149.054 233.035 154.534 227.555 161.771 223.704C169.049 219.811 177.957 217.864 188.494 217.864C194.292 217.864 199.793 218.414 204.998 219.515C210.203 220.615 214.731 222.011 218.582 223.704L210.647 243.382C207.304 241.731 203.834 240.504 200.237 239.7C196.64 238.854 192.768 238.431 188.621 238.431C183.077 238.431 178.613 239.679 175.228 242.176C171.884 244.673 169.451 248.016 167.928 252.205C166.404 256.352 165.643 260.944 165.643 265.979C165.643 271.735 166.447 276.601 168.055 280.579C169.705 284.515 172.096 287.519 175.228 289.593C178.401 291.624 182.231 292.64 186.717 292.64C188.198 292.64 189.996 292.534 192.112 292.322C194.271 292.111 195.9 291.857 197 291.561V277.024H180.433V257.664ZM296.341 312L291.771 294.607H261.619L256.922 312H229.373L259.651 218.816H293.104L323.763 312H296.341ZM286.565 274.041L282.566 258.807C282.143 257.156 281.53 254.808 280.726 251.761C279.922 248.672 279.118 245.498 278.313 242.239C277.552 238.938 276.959 236.23 276.536 234.114C276.155 236.23 275.605 238.854 274.886 241.985C274.209 245.075 273.489 248.143 272.728 251.189C272.008 254.236 271.373 256.775 270.823 258.807L266.824 274.041H286.565ZM374.29 312L355.311 245.159H354.739C354.909 246.894 355.078 249.243 355.247 252.205C355.459 255.167 355.649 258.362 355.818 261.79C355.988 265.218 356.072 268.519 356.072 271.692V312H333.855V219.197H367.244L386.604 285.086H387.112L406.092 219.197H439.544V312H416.502V271.312C416.502 268.392 416.544 265.26 416.629 261.917C416.756 258.532 416.883 255.358 417.01 252.396C417.179 249.391 417.327 247.021 417.454 245.286H416.883L398.157 312H374.29ZM514.637 312H459.539V219.197H514.637V239.319H484.612V253.919H512.415V274.041H484.612V291.561H514.637V312ZM247.273 395.472C247.273 402.623 246.406 409.14 244.671 415.022C242.978 420.862 240.312 425.898 236.673 430.13C233.034 434.362 228.357 437.62 222.645 439.905C216.932 442.148 210.097 443.27 202.142 443.27C194.355 443.27 187.605 442.148 181.893 439.905C176.222 437.62 171.546 434.383 167.864 430.193C164.183 425.962 161.453 420.905 159.676 415.022C157.898 409.14 157.01 402.581 157.01 395.345C157.01 385.696 158.597 377.317 161.771 370.208C164.987 363.056 169.938 357.534 176.624 353.641C183.31 349.705 191.858 347.737 202.269 347.737C212.848 347.737 221.438 349.705 228.04 353.641C234.684 357.576 239.55 363.12 242.64 370.271C245.729 377.423 247.273 385.823 247.273 395.472ZM183.416 395.472C183.416 401.058 184.051 405.861 185.32 409.881C186.59 413.901 188.6 416.99 191.351 419.148C194.101 421.307 197.698 422.386 202.142 422.386C206.754 422.386 210.415 421.307 213.123 419.148C215.874 416.99 217.841 413.901 219.026 409.881C220.254 405.861 220.867 401.058 220.867 395.472C220.867 387.093 219.471 380.47 216.678 375.604C213.885 370.737 209.082 368.304 202.269 368.304C197.741 368.304 194.08 369.404 191.287 371.604C188.536 373.805 186.526 376.937 185.257 380.999C184.03 385.062 183.416 389.886 183.416 395.472ZM344.202 349.197L313.797 442H284.28L254.002 349.197H282.186L294.817 396.233C295.283 398.011 295.812 400.296 296.404 403.089C297.039 405.84 297.61 408.59 298.118 411.341C298.668 414.091 299.007 416.334 299.134 418.069C299.303 416.334 299.62 414.113 300.086 411.404C300.551 408.696 301.059 405.988 301.609 403.279C302.202 400.529 302.752 398.265 303.26 396.487L316.146 349.197H344.202ZM409.393 442H354.295V349.197H409.393V369.319H379.368V383.919H407.171V404.041H379.368V421.561H409.393V442ZM456.048 349.197C464.469 349.197 471.473 350.234 477.059 352.308C482.645 354.339 486.834 357.386 489.627 361.448C492.462 365.511 493.88 370.568 493.88 376.619C493.88 380.385 493.245 383.813 491.976 386.902C490.706 389.992 488.886 392.763 486.517 395.218C484.189 397.63 481.396 399.746 478.138 401.565L505.179 442H476.741L457.063 408.23H450.716V442H425.643V349.197H456.048ZM455.667 368.177H450.716V389.378H455.413C459.264 389.378 462.417 388.532 464.871 386.839C467.326 385.146 468.553 382.12 468.553 377.762C468.553 374.757 467.537 372.409 465.506 370.716C463.475 369.023 460.195 368.177 455.667 368.177Z" fill="#2C3E50"/>
</svg>
