<svg width="12" height="12" viewBox="0 0 12 12" fill="none" xmlns="http://www.w3.org/2000/svg">
<g clip-path="url(#clip0_165_89)">
<path d="M0.805392 6.00004C1.18489 6.00004 1.49289 6.28504 1.54789 6.66004C1.86839 8.82954 3.74239 10.5 5.99939 10.5C8.73739 10.5 10.9129 8.04154 10.4329 5.21554C10.2064 3.88304 9.35889 2.70404 8.17139 2.05904C6.41839 1.10754 4.43139 1.43254 3.08139 2.58154L3.64639 3.14654C3.96139 3.46154 3.73839 4.00004 3.29289 4.00004H0.999892C0.723892 4.00004 0.499892 3.77604 0.499892 3.50004V1.20704C0.499892 0.761538 1.03839 0.538538 1.35339 0.853538L2.01939 1.51954C3.79989 -0.0574619 6.46039 -0.533962 8.81839 0.704038C10.4784 1.57554 11.6504 3.21754 11.9299 5.07154C12.4909 8.79004 9.61339 12 5.99989 12C2.98939 12 0.489392 9.77154 0.0638918 6.87704C-0.0036082 6.41704 0.340392 6.00004 0.805392 6.00004Z" fill="#2C3E50"/>
</g>
<defs>
<clipPath id="clip0_165_89">
<rect width="12" height="12" fill="white"/>
</clipPath>
</defs>
</svg>
